<?xml version="1.0" encoding="UTF-8"?><svg id="a" xmlns="http://www.w3.org/2000/svg" width="1920" height="1080" viewBox="0 0 1920 1080"><defs><style>.c,.d,.e,.f,.g,.h,.i{fill:none;}.d{stroke:#f2c12e;}.d,.e,.f,.j,.k,.l,.m,.n,.o,.p,.g,.h,.i,.q,.r,.s,.t,.u{stroke-miterlimit:10;}.d,.e,.j,.q,.r,.s,.t,.u{stroke-width:3px;}.e,.j,.k,.l,.m,.n,.o,.p,.v,.w,.i,.q,.r,.s,.t,.u{stroke:#806fa6;}.f{stroke:#f23535;stroke-width:6px;}.x{fill:#f29441;}.y,.r{fill:#f2b544;}.z{fill:#d94343;}.aa{fill:#d42943;}.ab,.k{fill:#067368;}.k,.l,.m,.n,.o,.p,.i{stroke-width:8px;}.l{fill:#3f2940;}.m{fill:#603813;}.n,.s{fill:#f2bba7;}.o,.u{fill:#f28379;}.p{fill:#fff;}.g{stroke-width:10px;}.g,.h{stroke:#000;}.v{fill:#754c24;stroke-miterlimit:10;stroke-width:7px;}.w{fill:#42210b;stroke-miterlimit:10;stroke-width:7px;}.h{stroke-width:4px;}.ac{opacity:.85;}.q{fill:#9e2443;}.t{fill:#f2c12e;}</style></defs><g id="b"><rect y="-1" width="1920" height="1080"/></g><g><path class="ab" d="M171.08,204.17V54.17h66.72c9.11,0,16.94,3.28,23.48,9.84,6.54,6.56,9.8,14.38,9.8,23.44v83.44c0,9.01-3.27,16.81-9.8,23.4-6.54,6.59-14.36,9.88-23.48,9.88h-66.72Zm33.28-16.72h16.72c4.63,0,8.58-1.64,11.84-4.92,3.25-3.28,4.88-7.16,4.88-11.64V87.45c0-4.53-1.65-8.42-4.96-11.68-3.31-3.25-7.23-4.88-11.76-4.88h-16.72v116.56Z"/><path class="ab" d="M304.36,204.17V54.17h66.72c9.11,0,16.94,3.28,23.48,9.84s9.8,14.38,9.8,23.44v9.06c0,7.45-2.55,14.62-7.66,21.52-5.1,6.9-13.65,10.35-25.62,10.35h16.56c4.58,0,8.52,1.64,11.8,4.92s4.92,7.21,4.92,11.8v59.06h-33.28v-50c0-4.58-1.65-8.52-4.96-11.8s-7.23-4.92-11.76-4.92h-16.72v66.72h-33.28Zm33.28-83.27h16.72c4.53,0,8.45-1.65,11.76-4.96s4.96-7.23,4.96-11.76v-16.72c0-4.53-1.65-8.42-4.96-11.68-3.31-3.25-7.23-4.88-11.76-4.88h-16.72v50Z"/><path class="ab" d="M437.64,204.17V54.17h83.28v16.72h-50v50h33.44v16.56h-33.44v50h50v16.72h-83.28Z"/><path class="ab" d="M554.36,204.17V87.45c0-9.11,3.27-16.94,9.8-23.48,6.54-6.54,14.36-9.8,23.48-9.8h33.44c9.11,0,16.94,3.28,23.48,9.84s9.8,14.38,9.8,23.44v116.72h-33.28v-66.72h-33.44v66.72h-33.28Zm33.28-83.28h33.44v-33.44c0-4.53-1.65-8.42-4.96-11.68-3.31-3.25-7.23-4.88-11.76-4.88s-8.52,1.63-11.8,4.88c-3.28,3.26-4.92,7.15-4.92,11.68v33.44Z"/><path class="ab" d="M687.64,204.17V54.17h7.58l71.25,71.09,71.17-71.09h16.72V204.17h-33.44V112.45l-58.52,58.52-58.05-58.52v91.72h-16.71Z"/><path class="ab" d="M1036.47,170.89c-1.46,22.19-12.55,33.28-33.28,33.28h-33.44c-9.12,0-16.94-3.27-23.48-9.8-6.54-6.54-9.8-14.36-9.8-23.48V87.45c0-8.96,3.21-16.74,9.65-23.36,6.43-6.61,14.31-9.92,23.63-9.92h33.44c20.94,0,32.03,11.09,33.28,33.28h-16.72c-1.3-11.04-6.82-16.56-16.56-16.56h-16.72c-4.58,0-8.52,1.63-11.8,4.88-3.28,3.26-4.92,7.15-4.92,11.68v83.44c0,4.48,1.63,8.36,4.88,11.64s7.2,4.92,11.84,4.92h16.72c9.79,0,15.31-5.52,16.56-16.56h16.72Z"/><path class="ab" d="M1069.75,204.17V87.45c0-9.11,3.27-16.94,9.8-23.48,6.54-6.54,14.36-9.8,23.48-9.8h33.44c9.11,0,16.94,3.28,23.48,9.84s9.8,14.38,9.8,23.44v116.72h-33.28v-66.72h-33.44v66.72h-33.28Zm33.28-83.28h33.44v-33.44c0-4.53-1.65-8.42-4.96-11.68-3.31-3.25-7.23-4.88-11.76-4.88s-8.52,1.63-11.8,4.88c-3.28,3.26-4.92,7.15-4.92,11.68v33.44h0Z"/><path class="ab" d="M1219.59,204.17V70.89h-33.28v-16.72h100v16.72h-33.28V204.17h-33.44Z"/><path class="ab" d="M1403.02,170.89c-1.46,22.19-12.55,33.28-33.28,33.28h-33.44c-9.12,0-16.94-3.27-23.48-9.8-6.54-6.54-9.8-14.36-9.8-23.48V87.45c0-8.96,3.21-16.74,9.65-23.36,6.43-6.61,14.31-9.92,23.63-9.92h33.44c20.94,0,32.03,11.09,33.28,33.28h-16.72c-1.3-11.04-6.82-16.56-16.56-16.56h-16.72c-4.58,0-8.52,1.63-11.8,4.88-3.28,3.26-4.92,7.15-4.92,11.68v83.44c0,4.48,1.63,8.36,4.88,11.64s7.2,4.92,11.84,4.92h16.72c9.79,0,15.31-5.52,16.56-16.56h16.72Z"/><path class="ab" d="M1436.3,204.17V54.17h33.28V120.89h33.44V54.17h33.28V204.17h-33.28v-66.72h-33.44v66.72h-33.28Z"/><path class="ab" d="M1569.58,204.17V54.17h83.28v16.72h-50v50h33.44v16.56h-33.44v50h50v16.72h-83.28Z"/><path class="ab" d="M1686.3,204.17V54.17h66.72c9.11,0,16.94,3.28,23.48,9.84s9.8,14.38,9.8,23.44v9.06c0,7.45-2.55,14.62-7.66,21.52s-13.65,10.35-25.62,10.35h16.56c4.58,0,8.52,1.64,11.8,4.92s4.92,7.21,4.92,11.8v59.06h-33.28v-50c0-4.58-1.65-8.52-4.96-11.8-3.31-3.28-7.23-4.92-11.76-4.92h-16.72v66.72h-33.28Zm33.28-83.27h16.72c4.53,0,8.45-1.65,11.76-4.96s4.96-7.23,4.96-11.76v-16.72c0-4.53-1.65-8.42-4.96-11.68-3.31-3.25-7.23-4.88-11.76-4.88h-16.72v50Z"/></g><g><path class="y" d="M188.25,214.57V64.57h66.72c9.11,0,16.94,3.28,23.48,9.84s9.8,14.38,9.8,23.44v83.44c0,9.01-3.27,16.81-9.8,23.4-6.54,6.59-14.36,9.88-23.48,9.88h-66.72Zm33.28-16.72h16.72c4.63,0,8.58-1.64,11.84-4.92,3.25-3.28,4.88-7.16,4.88-11.64V97.85c0-4.53-1.65-8.42-4.96-11.68-3.31-3.25-7.23-4.88-11.76-4.88h-16.72v116.56Z"/><path class="y" d="M321.53,214.57V64.57h66.72c9.11,0,16.94,3.28,23.48,9.84s9.8,14.38,9.8,23.44v9.06c0,7.45-2.55,14.62-7.66,21.52-5.1,6.9-13.65,10.35-25.62,10.35h16.56c4.58,0,8.52,1.64,11.8,4.92s4.92,7.21,4.92,11.8v59.06h-33.28v-50c0-4.58-1.65-8.52-4.96-11.8s-7.23-4.92-11.76-4.92h-16.72v66.72h-33.28Zm33.28-83.27h16.72c4.53,0,8.45-1.65,11.76-4.96,3.31-3.31,4.96-7.23,4.96-11.76v-16.72c0-4.53-1.65-8.42-4.96-11.68-3.31-3.25-7.23-4.88-11.76-4.88h-16.72v50Z"/><path class="y" d="M454.81,214.57V64.57h83.28v16.72h-50v50h33.44v16.56h-33.44v50h50v16.72h-83.28Z"/><path class="y" d="M571.53,214.57V97.85c0-9.11,3.27-16.94,9.8-23.48,6.54-6.54,14.36-9.8,23.48-9.8h33.44c9.11,0,16.94,3.28,23.48,9.84s9.8,14.38,9.8,23.44v116.72h-33.28v-66.72h-33.44v66.72h-33.28Zm33.28-83.28h33.44v-33.44c0-4.53-1.65-8.42-4.96-11.68-3.31-3.25-7.23-4.88-11.76-4.88s-8.52,1.63-11.8,4.88c-3.28,3.26-4.92,7.15-4.92,11.68v33.44Z"/><path class="y" d="M704.81,214.57V64.57h7.58l71.25,71.09,71.17-71.09h16.72V214.57h-33.44V122.85l-58.52,58.52-58.05-58.52v91.72h-16.71Z"/><path class="y" d="M1053.63,181.29c-1.46,22.19-12.55,33.28-33.28,33.28h-33.44c-9.12,0-16.94-3.27-23.48-9.8-6.54-6.54-9.8-14.36-9.8-23.48V97.85c0-8.96,3.21-16.74,9.65-23.36,6.43-6.61,14.31-9.92,23.63-9.92h33.44c20.94,0,32.03,11.09,33.28,33.28h-16.72c-1.3-11.04-6.82-16.56-16.56-16.56h-16.72c-4.58,0-8.52,1.63-11.8,4.88-3.28,3.26-4.92,7.15-4.92,11.68v83.44c0,4.48,1.63,8.36,4.88,11.64s7.2,4.92,11.84,4.92h16.72c9.79,0,15.31-5.52,16.56-16.56h16.72Z"/><path class="y" d="M1086.91,214.57V97.85c0-9.11,3.27-16.94,9.8-23.48,6.54-6.54,14.36-9.8,23.48-9.8h33.44c9.11,0,16.94,3.28,23.48,9.84s9.8,14.38,9.8,23.44v116.72h-33.28v-66.72h-33.44v66.72h-33.28Zm33.29-83.28h33.44v-33.44c0-4.53-1.65-8.42-4.96-11.68-3.31-3.25-7.23-4.88-11.76-4.88s-8.52,1.63-11.8,4.88c-3.28,3.26-4.92,7.15-4.92,11.68v33.44h0Z"/><path class="y" d="M1236.76,214.57V81.29h-33.28v-16.72h100v16.72h-33.28V214.57h-33.44Z"/><path class="y" d="M1420.19,181.29c-1.46,22.19-12.55,33.28-33.28,33.28h-33.44c-9.12,0-16.94-3.27-23.48-9.8-6.54-6.54-9.8-14.36-9.8-23.48V97.85c0-8.96,3.21-16.74,9.65-23.36,6.43-6.61,14.31-9.92,23.63-9.92h33.44c20.94,0,32.03,11.09,33.28,33.28h-16.72c-1.3-11.04-6.82-16.56-16.56-16.56h-16.72c-4.58,0-8.52,1.63-11.8,4.88-3.28,3.26-4.92,7.15-4.92,11.68v83.44c0,4.48,1.63,8.36,4.88,11.64s7.2,4.92,11.84,4.92h16.72c9.79,0,15.31-5.52,16.56-16.56h16.72Z"/><path class="y" d="M1453.47,214.57V64.57h33.28v66.72h33.44V64.57h33.28V214.57h-33.28v-66.72h-33.44v66.72h-33.28Z"/><path class="y" d="M1586.75,214.57V64.57h83.28v16.72h-50v50h33.44v16.56h-33.44v50h50v16.72h-83.28Z"/><path class="y" d="M1703.47,214.57V64.57h66.72c9.11,0,16.94,3.28,23.48,9.84s9.8,14.38,9.8,23.44v9.06c0,7.45-2.55,14.62-7.66,21.52-5.11,6.9-13.65,10.35-25.62,10.35h16.56c4.58,0,8.52,1.64,11.8,4.92s4.92,7.21,4.92,11.8v59.06h-33.28v-50c0-4.58-1.65-8.52-4.96-11.8-3.31-3.28-7.23-4.92-11.76-4.92h-16.72v66.72h-33.28Zm33.28-83.27h16.72c4.53,0,8.45-1.65,11.76-4.96,3.31-3.31,4.96-7.23,4.96-11.76v-16.72c0-4.53-1.65-8.42-4.96-11.68-3.31-3.25-7.23-4.88-11.76-4.88h-16.72v50Z"/></g><polyline class="l" points="475 1078 869.14 1078 682.96 492.98"/><path class="l" d="M707.37,486.35l-120.7,22c-49.68,9.05-89.38,46.48-101.37,95.53-29.01,118.66-10.3,327.51-10.3,474.12"/><line class="f" x1="500.5" y1="920.68" x2="500.5" y2="892.76"/><line class="f" x1="500" y1="879" x2="500" y2="851.07"/><path class="m" d="M752.29,499.35s-5.26,205.26-50.39,173.41c-11.12,0-54.85-32.25-69.02-82.29-9.52-33.61,5.64-84.63,10.49-104.12-9.16-21.97-38.36-11.35-9.16-75.06s-26.55-58.4,79.64-167.24c37.16-23.89-10.62-45.13,111.49-53.09s153.96,13.27,153.96,13.27c0,0,35.99-12.84,67.11,33.4,31.11,46.24,82.88-2.87,104.11,95.34,21.24,98.22-34.51,148.65-34.51,148.65"/><path class="k" d="M750,903s-272.5-20.99-280,29c-.68,4.52-.02,.88-2,5-19.76,41.13-57,141-57,141h937l39-132-637-43Z"/><path class="n" d="M742.54,512.96s-15.93-63.71-59.58-19.98c-8.73,8.74-15.28,49.18-9.44,78.38,10.62,53.09,51.42,61.99,51.42,61.99"/><path class="n" d="M756,798l-19,104s162.23,163.16,214.62,49.08-16.11-96.95-16.11-96.95l-179.51-56.13Z"/><path class="n" d="M720.48,667.45l37.46-268.48s140.35,43.8,148.35,13.64c45.16-.96,61.79,27.5,106.18-7.96,47.05-.96,35.84,3.98,54.42-6.64,14.47,0,49.05,81.26,63.65,117.25,4.41,10.87,6.17,22.63,5.14,34.32l-19.68,221.4s5.31,82.29-69.02,95.56c-57.6,10.29-204.21-36.46-268.11-61.05-14.97-5.76-37.07-21.99-50.05-37.71-5.43-6.57-8.35-14.86-8.35-23.39v-76.94h0Z"/><circle cx="869.14" cy="545.34" r="22.56"/><circle cx="1012.49" cy="545.34" r="22.56" transform="translate(312.01 1457.4) rotate(-80.78)"/><path class="i" d="M951.62,570.17s31.68,48.32,36.11,71.83-3.51,24.22-16.74,25.21"/><path class="i" d="M973.25,667.33c-7.39,.55-19.08-1.06-27.97-2.59-9.5-1.64-17.09-9.34-17.81-18.95"/><path class="g" d="M906.04,486.62c-6.6-5.29-29.91-14.8-39.44-28.99-13.75-20.45-31.58-33.75-81.27,9.5"/><path class="g" d="M980.45,478.01s32.37,12.21,74.19-5.56c41.82-17.78,33.25-7.82,33.25-7.82"/><path class="o" d="M951.62,713.84s-17.98-29.19-45.58-13.24c-27.61-5.28-59.46-19.85-59.46-19.85,0,0,67.02,77.25,106.18,72.98,39.15-4.27,71.67-31.85,71.67-31.85,0,0-63.34-39.96-72.81-8.04Z"/><path class="i" d="M833.3,671.43s143.35,106.18,191.13,50.44"/><line class="i" x1="1078.24" y1="580.06" x2="1054.47" y2="569.68"/><line class="i" x1="816.47" y1="549.45" x2="792.7" y2="539.06"/><line class="i" x1="819.57" y1="573.38" x2="794.25" y2="583.24"/><line class="i" x1="1055.63" y1="544.12" x2="1079.4" y2="533.73"/><g><circle class="p" cx="1173.5" cy="870.5" r="236"/><circle cx="1043.09" cy="829.37" r="18.91"/><path class="g" d="M1012,923.23s167.84,132.05,342.5-9.73"/><circle cx="1304.55" cy="828.91" r="18.91"/></g><path class="n" d="M1353,717c-135.5,112.92-22-41-32-32-2.27,2.04-.87-.83,2.18-.83h60.93c5.37,0,10.09,3.55,11.58,8.71l25.68,89.05c2.6,9.02-2.3,18.49-11.17,21.57l-7.2,2.5s-32-104-50-89Z"/><path class="n" d="M1387,689l-82.45,69.38s-26,42.31,10.45,26.62,85-64,85-64l-13-32Z"/><path class="n" d="M1401.21,717.67l-57.21,54.33s-29.45,40.69,7,25,61.21-45.33,61.21-45.33l-11-34Z"/><path class="c" d="M433.57,400.5H193.43c-22.6,0-40.93-18.32-40.93-40.93v-83.14c0-22.6,18.32-40.93,40.93-40.93h240.14c22.6,0,40.93,18.32,40.93,40.93v83.14c0,22.61-18.32,40.93-40.93,40.93Z"/><line class="f" x1="499.97" y1="835.41" x2="499.97" y2="807.48"/><line class="f" x1="499.97" y1="790.41" x2="499.97" y2="762.48"/><line class="f" x1="499.97" y1="745.41" x2="499.97" y2="717.48"/><line class="f" x1="499.55" y1="699.23" x2="502.55" y2="670.94"/><line class="f" x1="505.96" y1="651.01" x2="511" y2="622"/><line class="f" x1="516" y1="601" x2="527.61" y2="573.38"/><line class="f" x1="544.96" y1="557.4" x2="569.08" y2="542.75"/><line class="f" x1="588.22" y1="533.73" x2="617" y2="528"/><rect class="w" x="-213.61" y="678.33" width="802.92" height="79.35" transform="translate(-550.19 796.25) rotate(-81.39)"/><rect class="v" x="-25.37" y="546.73" width="298.7" height="47.16" transform="translate(-459.43 586.04) rotate(-79.28)"/><rect class="v" x="-37.14" y="554.92" width="418.91" height="47.16" transform="translate(-428.15 640.2) rotate(-79.28)"/><rect class="v" x="22.27" y="526.68" width="414.29" height="47.16" transform="translate(-353.92 673.32) rotate(-79.28)"/><rect class="v" x="64.82" y="558.23" width="418.91" height="47.16" transform="translate(-348.4 743.08) rotate(-79.28)"/><rect class="v" x="219.96" y="593.16" width="298.7" height="47.16" transform="translate(-305.37 864.88) rotate(-79.28)"/><rect class="v" x="-77.18" y="564.38" width="298.7" height="47.16" transform="translate(-518.95 549.5) rotate(-79.28)"/><rect class="v" x="132.16" y="578.42" width="378.22" height="47.16" transform="translate(-329.98 805.69) rotate(-79.28)"/><g><path class="x" d="M129.05,503.19l8.65-45.69,20.32,3.85c2.78,.53,4.97,1.98,6.58,4.35,1.61,2.38,2.16,4.94,1.63,7.7l-.49,2.57c-.56,2.97-1.85,5.14-3.86,6.52-2.01,1.38-4.74,1.95-8.2,1.7,3.38,.64,5.72,2.14,7.02,4.5s1.7,4.88,1.19,7.56l-.49,2.57c-.52,2.75-1.97,4.93-4.36,6.56s-4.95,2.18-7.7,1.66l-20.29-3.85Zm14.94-23.44l5.09,.96c1.38,.26,2.67-.02,3.87-.83,1.2-.82,1.93-1.92,2.19-3.29l.96-5.09c.26-1.38-.02-2.66-.84-3.84-.82-1.18-1.92-1.9-3.3-2.17l-5.09-.96-2.88,15.22Zm-3.84,20.27l5.09,.96c1.38,.26,2.67-.01,3.87-.82s1.92-1.9,2.18-3.26l.96-5.09c.64-3.39-.73-5.41-4.13-6.06l-5.09-.96-2.88,15.23Z"/><path class="x" d="M169.64,510.88l8.65-45.69,25.37,4.8-.96,5.09-15.23-2.88-2.88,15.23,10.18,1.93-.96,5.05-10.18-1.93-2.88,15.23,15.23,2.88-.96,5.09-25.38-4.8Z"/><path class="x" d="M213.85,471.92l10.14,1.92-7.69,40.6,5.09,.96c1.41,.27,2.71-.01,3.89-.82s1.9-1.9,2.16-3.26l6.73-35.55,10.14,1.92-7.69,40.6,5.09,.96c1.38,.26,2.66-.01,3.84-.83,1.18-.81,1.9-1.9,2.16-3.26l6.73-35.55,10.18,1.93-5.37,28.34c-.9,4.73-3.37,8.48-7.42,11.25-4.05,2.77-8.46,3.71-13.21,2.81l-13.11-2.48,.31-1.62c-2.15,.71-4.66,.79-7.52,.25l-13.11-2.48,8.66-45.69Z"/><path class="x" d="M266.11,529.15l6.73-35.55c.53-2.78,1.97-4.97,4.34-6.59,2.37-1.61,4.94-2.16,7.72-1.63l10.18,1.93c2.78,.53,4.97,1.98,6.58,4.35,1.61,2.38,2.16,4.94,1.63,7.7l-6.73,35.55-10.14-1.92,3.85-20.32-10.18-1.93-3.85,20.32-10.13-1.91Zm14.94-23.45l10.18,1.93,1.93-10.18c.26-1.38-.02-2.66-.84-3.84s-1.92-1.9-3.3-2.17c-1.4-.26-2.69,0-3.87,.81-1.19,.8-1.91,1.89-2.17,3.27l-1.93,10.18Z"/><path class="x" d="M306.71,536.83l8.65-45.69,20.32,3.85c2.78,.53,4.97,1.98,6.58,4.35,1.61,2.38,2.16,4.94,1.63,7.7l-.52,2.76c-.43,2.27-1.62,4.31-3.57,6.11-1.95,1.81-4.75,2.37-8.4,1.67l5.05,.96c1.4,.26,2.5,.99,3.31,2.18s1.08,2.48,.82,3.88l-3.41,17.99-10.14-1.92,2.88-15.23c.26-1.4-.01-2.69-.83-3.88-.82-1.19-1.92-1.92-3.3-2.18l-5.09-.96-3.85,20.32-10.13-1.91Zm14.94-23.44l5.09,.96c1.38,.26,2.67-.02,3.87-.83,1.2-.82,1.93-1.92,2.19-3.29l.96-5.09c.26-1.38-.02-2.66-.84-3.84s-1.92-1.9-3.3-2.17l-5.09-.96-2.88,15.22Z"/><path class="x" d="M347.3,544.52l8.65-45.69,25.37,4.8-.96,5.09-15.23-2.88-2.88,15.23,10.18,1.93-.96,5.05-10.18-1.93-2.88,15.23,15.23,2.88-.96,5.09-25.38-4.8Z"/></g><g class="ac"><path class="j" d="M243.03,637.68l-6.5,46.35s-4.54,14.81-9.98,17.76,.55,12.83,7.95,13.85c4.95,.68,18.84-2.04,18.84-2.04l8.39-2.54-18.7-73.38"/><path class="j" d="M332.14,602.03l4.13,79.79c.05,.49,1.12,1.42,.9,1.86l-6.85,11.81c-.39,.81-1.63,1.74-2.59,1.96l-12.7,5.81c-1.29,.3-2.22,1.26-2.38,2.43l-1.26,9.17c-.24,1.74,1.26,3.33,3.24,3.45l37.32,2.18c.76,.04,5.92,.85,8.21,.26,4.5-1.15,8.86-8.21,7.6-12.29l-9.65-20.46c-1.16-2.33-2.18-4.19-2.36-6.7l-5.22-71.22c-.03-.75-.38-1.46-.97-2.01l-12.98-12.04c-.69-.64-1.66-1-2.65-.96l-.63,.02c-2.87,.1-4.17,3.16-2.13,5.03h0c.56,.54,.91,1.21,.97,1.91Z"/><path class="s" d="M312.92,703.77l-1.7,21.44-51.11,.5s-10-.93-7.8-5.67c2.19-4.74,3.92-5.91,5.2-9.16"/><path class="s" d="M295.94,588.12l25.86,5.56c6.44,1.38,11.15,6.92,11.48,13.5l3.82,76.48c.14,2.87-.62,5.71-2.19,8.12l-4.62,7.12-58.14,16.29s-12,3.88-17.2-10.16c-5.21-14.04-5.04-25.76-5.04-25.76l-7.66-35.72s1.11-10.34,3.08-14.03c1.35-2.54,9.5-22.49,14.47-34.72,2.3-5.66,8.02-9.16,14.1-8.62l22.04,1.94Z"/><circle cx="269.35" cy="639.39" r="4.88"/><circle cx="301.41" cy="640.79" r="4.88"/><path class="h" d="M293.62,627.57c1.57-.94,6.85-2.29,9.31-5.05,3.55-3.98,7.77-6.3,17.14,4.44"/><path class="h" d="M275.51,623.68s-7.3,1.66-15.74-3.38-6.9-2.66-6.9-2.66"/><path class="e" d="M281.82,647.07s-8.22,9.42-9.86,14.33c-1.64,4.91,.04,5.3,2.84,5.9,1.57,.34,4.12,.34,6.07,.27,2.08-.07,3.94-1.5,4.38-3.54,.16-.75,.07-1.4-.58-1.66"/><path class="u" d="M280.8,673.58s.05,2.75,8.34-.56c8.3-3.31,15.48,4.5,15.48,4.5,0,0-10.04,7.6-16.45,8.21s-20.42-6.15-20.42-6.15c0,0,7.79-8.89,13.05-6Z"/><line class="e" x1="304.62" y1="677.52" x2="267.76" y2="679.59"/><line class="e" x1="311.57" y1="645.23" x2="317.65" y2="646.54"/><line class="e" x1="255.61" y1="644.12" x2="261.01" y2="642.59"/><line class="e" x1="308.38" y1="650.06" x2="314.25" y2="654.04"/><path class="q" d="M349.16,612.09c3.34-2.29,6.3-4.39,8.92-6.31,23.28-17.09,20.2-20.81,20.73-28.56,.59-8.62-45.83-25.45-62.89-28.31-13.52-7.02-73.56,4.88-76.87,7.32s17,40.45,20.5,38.48c3.5-1.97,47.76,1.07,58.24,2.15,10.49,1.08,32.66,15.59,32.66,15.59"/><g><path class="z" d="M349.31,611.18l-.24-.07c.12-.08,.23-.16,.35-.24,.05,.03,.11,.07,.16,.1-.09,.07-.18,.14-.27,.21Z"/><path class="aa" d="M260,593.54l-3.05-1.31-8.3-12.47h0l75.84,4.95s32.3,9.67,33.97,18.59c-.99,1.23-3.97,3.74-6.84,6.04-.71,.49-1.44,1-2.19,1.52-4.34-2.76-22.52-14.04-31.72-14.98-7.07-.73-29.46-2.34-44.39-2.72-6.44-.16-11.48-.09-13.32,.38Z"/></g><path class="d" d="M359.66,604s-10.16-11.33-27.11-17.2c-6.99-2.42-19.75-3.99-33.25-5.01-24.07-1.82-50.54-1.31-50.54-1.31"/></g><g class="ac"><path class="t" d="M213.67,539.06l-53.54,1.38s-40.17-5.52-41.83,19.51-17.02,67.47-17.02,67.47l-10.21,49.08,51.29,5.15"/><path class="s" d="M134.21,599.52s-2.83-14.26-12.96-5.07c-2.03,1.84-3.91,10.71-2.94,17.23,1.77,11.86,9.4,12.23,9.4,12.23"/><path class="s" d="M143.43,671.41l-2.34,21.89,51.31,10.18s10.23,.96,8.92-4.23-2.82-6.69-3.5-10.2"/><path class="s" d="M182.41,558.3l-27.06,.7c-6.74,.17-12.52,4.85-14.1,11.41l-18.32,76.2c-.69,2.86-.46,5.86,.66,8.58l3.3,8.04,55.39,27.39s11.33,6.18,19.23-6.96,9.94-24.95,9.94-24.95l14.46-34.48s.84-10.61-.44-14.69c-.88-2.81-5.3-24.42-7.98-37.66-1.24-6.13-6.33-10.73-12.55-11.34l-22.53-2.24Z"/><circle cx="199.45" cy="614.9" r="5"/><circle cx="166.93" cy="610.24" r="5"/><path class="h" d="M177.26,598.42c-1.4-1.24-6.45-3.6-8.41-6.84-2.82-4.67-6.62-7.81-18.08,1.22"/><path class="h" d="M196.22,597.93s7.03,3.05,16.47-.42c9.44-3.48,7.44-1.37,7.44-1.37"/><path class="e" d="M185.45,620.26s6.48,11.03,7.2,16.28-1.04,5.32-3.98,5.39c-1.64,.04-4.21-.44-6.16-.88-2.08-.47-3.68-2.25-3.73-4.38-.02-.78,.2-1.42,.9-1.56"/><path class="u" d="M181.46,647.12s-.57,2.76-8.29-2.14-16.42,1.6-16.42,1.6c0,0,8.66,9.54,14.99,11.38,6.33,1.83,21.7-2.32,21.7-2.32,0,0-6.15-10.43-11.98-8.52Z"/><line class="e" x1="156.75" y1="646.58" x2="193.44" y2="655.63"/><line class="e" x1="155.88" y1="612.79" x2="149.51" y2="612.95"/><line class="e" x1="212.37" y1="622.26" x2="207.22" y2="619.7"/><path class="r" d="M145.2,563.38c17.56-48.67,37.21-5.07,37.21-5.07l-37.21,5.07Z"/><path class="e" d="M145.2,563.38c-1.9,.86-9.77,13.94-24.27,16.5"/><path class="r" d="M182.41,558.3c14.24-14.52,22.69-19.26,27.59-18.93,10.78,.74,4.35,26.06,4.35,26.06l-31.94-7.13Z"/><line class="e" x1="158.17" y1="618.24" x2="151.51" y2="621.14"/></g></svg>