<?xml version="1.0" encoding="UTF-8"?><svg id="a" xmlns="http://www.w3.org/2000/svg" viewBox="0 0 160 170"><defs><style>.b,.c,.d,.e,.f{stroke-miterlimit:10;}.b,.c,.e,.f{stroke:#806fa6;}.b,.d{fill:none;}.b,.e,.f{stroke-width:3px;}.g{fill:#f2b544;}.c{fill:#f28379;}.c,.d{stroke-width:4px;}.d{stroke:#000;}.e{fill:#603813;}.f{fill:#f2bba7;}</style></defs><circle class="g" cx="80" cy="84.97" r="80"/><g><path class="f" d="M57.67,135.14l-1.21,21.06,49.59,7.32s9.84,.44,8.34-4.47c-1.5-4.9-3.01-6.27-3.83-9.6"/><path class="e" d="M47.81,73.29s-1.12,43.56-10.69,36.8c-2.36,0-11.64-6.84-14.65-17.46-2.02-7.13,1.2-17.96,2.23-22.09-1.94-4.66-8.14-2.41-1.94-15.93,6.2-13.52-5.63-12.39,16.9-35.49,7.89-5.07-2.25-9.58,23.66-11.27,25.91-1.69,32.67,2.82,32.67,2.82,0,0,7.64-2.72,14.24,7.09,6.6,9.81,17.59-.61,22.09,20.23,4.51,20.84-7.32,31.54-7.32,31.54"/><path class="f" d="M45.74,76.17s-3.38-13.52-12.64-4.24c-1.85,1.86-3.24,10.44-2,16.63,2.25,11.27,12.22,14.76,12.22,14.76"/><path class="f" d="M41.06,108.96l7.95-56.97s29.78,9.29,31.48,2.89c9.58-.2,13.11,5.84,22.53-1.69,9.98-.2,7.6,.84,11.55-1.41,3.94,0,14.93,28.45,14.93,28.45l-4.51,50.7s1.13,17.46-14.65,20.28c-12.22,2.18-43.33-7.74-56.89-12.96-4.06-1.56-10.58-6.75-12.39-10.7v-18.59Z"/><circle cx="72.6" cy="83.05" r="4.79"/><circle cx="103.02" cy="83.05" r="4.79"/><path class="b" d="M90.1,88.31s6.72,10.25,7.66,15.24c.94,4.99-.74,5.14-3.55,5.35"/><path class="b" d="M94.69,108.93c-1.57,.12-4.05-.22-5.94-.55-2.02-.35-3.63-1.98-3.78-4.02"/><path class="d" d="M80.43,70.58c-1.4-1.12-6.35-3.14-8.37-6.15-2.92-4.34-6.7-7.16-17.25,2.02"/><path class="d" d="M96.22,68.76s6.87,2.59,15.74-1.18,7.06-1.66,7.06-1.66"/><path class="c" d="M90.1,118.8s-3.81-6.19-9.67-2.81c-5.86-1.12-12.62-4.21-12.62-4.21,0,0,14.22,16.39,22.53,15.48,8.31-.91,15.21-6.76,15.21-6.76,0,0-13.44-8.48-15.45-1.7Z"/><path class="b" d="M65,109.8s30.42,22.53,40.56,10.7"/><line class="f" x1="116.97" y1="90.41" x2="111.93" y2="88.21"/><line class="f" x1="61.42" y1="83.92" x2="56.38" y2="81.71"/><line class="f" x1="62.08" y1="89" x2="56.71" y2="91.09"/><line class="f" x1="112.17" y1="82.79" x2="117.22" y2="80.58"/></g></svg>