<?xml version="1.0" encoding="UTF-8"?>
<svg id="Layer_1" data-name="Layer 1" xmlns="http://www.w3.org/2000/svg" viewBox="0 0 1920 1080">
  <defs>
    <style>
      .cls-1, .cls-2, .cls-3 {
        stroke-width: 5px;
      }

      .cls-1, .cls-2, .cls-3, .cls-4, .cls-5, .cls-6, .cls-7, .cls-8, .cls-9, .cls-10, .cls-11, .cls-12, .cls-13, .cls-14, .cls-15, .cls-16, .cls-17, .cls-18, .cls-19, .cls-20, .cls-21, .cls-22, .cls-23, .cls-24, .cls-25, .cls-26, .cls-27, .cls-28, .cls-29, .cls-30, .cls-31, .cls-32, .cls-33, .cls-34, .cls-35, .cls-36, .cls-37, .cls-38, .cls-39, .cls-40, .cls-41, .cls-42, .cls-43, .cls-44, .cls-45 {
        stroke-miterlimit: 10;
      }

      .cls-1, .cls-2, .cls-3, .cls-17, .cls-23 {
        fill: #fff;
      }

      .cls-1, .cls-8, .cls-11, .cls-14, .cls-15, .cls-17, .cls-18, .cls-19, .cls-20, .cls-21, .cls-22, .cls-23, .cls-27, .cls-28, .cls-31, .cls-32, .cls-36, .cls-37, .cls-38, .cls-40, .cls-45 {
        stroke: #806fa6;
      }

      .cls-2, .cls-9, .cls-12, .cls-13, .cls-44 {
        stroke: #f23535;
      }

      .cls-3, .cls-4, .cls-29 {
        stroke: #fff;
      }

      .cls-4, .cls-5, .cls-6, .cls-7, .cls-8, .cls-9, .cls-13, .cls-24, .cls-29, .cls-30, .cls-31 {
        fill: none;
      }

      .cls-4, .cls-13 {
        stroke-width: 17px;
      }

      .cls-4, .cls-46 {
        opacity: .2;
      }

      .cls-5 {
        stroke: #fabe00;
      }

      .cls-5, .cls-6, .cls-7, .cls-8, .cls-10, .cls-11, .cls-32, .cls-33, .cls-34, .cls-35, .cls-36, .cls-37, .cls-38, .cls-39, .cls-40, .cls-41, .cls-42, .cls-43 {
        stroke-width: 3px;
      }

      .cls-6 {
        stroke: #f2c12e;
      }

      .cls-7, .cls-10, .cls-16, .cls-33, .cls-34, .cls-35, .cls-39, .cls-41, .cls-42, .cls-43 {
        stroke: #826ea9;
      }

      .cls-9, .cls-12, .cls-44 {
        stroke-width: 6px;
      }

      .cls-47 {
        fill: #f29441;
      }

      .cls-48, .cls-14 {
        fill: #ff5800;
      }

      .cls-49 {
        fill: #e6003d;
      }

      .cls-50 {
        fill: #eb303b;
      }

      .cls-51, .cls-36 {
        fill: #f2b544;
      }

      .cls-52, .cls-42 {
        fill: #fcb119;
      }

      .cls-53 {
        fill: #d94343;
      }

      .cls-54 {
        fill: #d42943;
      }

      .cls-55, .cls-18 {
        fill: #067368;
      }

      .cls-14, .cls-15, .cls-24 {
        stroke-width: 10px;
      }

      .cls-15 {
        fill: #f2b705;
      }

      .cls-16, .cls-17, .cls-29, .cls-30 {
        stroke-width: 4px;
      }

      .cls-16, .cls-34 {
        fill: #ff7b74;
      }

      .cls-18, .cls-19, .cls-20, .cls-21, .cls-22, .cls-23, .cls-31, .cls-45 {
        stroke-width: 8px;
      }

      .cls-19, .cls-25, .cls-44 {
        fill: #3f2940;
      }

      .cls-20 {
        fill: #603813;
      }

      .cls-21, .cls-37, .cls-39 {
        fill: #f2bba7;
      }

      .cls-22, .cls-40 {
        fill: #f28379;
      }

      .cls-24, .cls-25, .cls-26, .cls-30 {
        stroke: #000;
      }

      .cls-26, .cls-56 {
        opacity: .85;
      }

      .cls-27 {
        fill: #754c24;
      }

      .cls-27, .cls-28 {
        stroke-width: 7px;
      }

      .cls-28 {
        fill: #42210b;
      }

      .cls-57 {
        font-family: Skia-Bold, Skia;
        font-size: 30px;
        font-variation-settings: 'wght' 1, 'wdth' 1;
        font-weight: 700;
      }

      .cls-32 {
        fill: #9e2443;
      }

      .cls-33 {
        fill: #ab0d41;
      }

      .cls-35 {
        fill: #673606;
      }

      .cls-38 {
        fill: #f2c12e;
      }

      .cls-41 {
        fill: #fbb7a2;
      }

      .cls-43 {
        fill: #fabe00;
      }
    </style>
  </defs>
  <rect x=".42" y="-.89" width="1920" height="1080"/>
  <g>
    <path class="cls-55" d="M152.5,204.28V54.28h66.72c9.11,0,16.94,3.28,23.48,9.84,6.54,6.56,9.8,14.38,9.8,23.44v83.44c0,9.01-3.27,16.81-9.8,23.4-6.54,6.59-14.36,9.88-23.48,9.88h-66.72Zm33.28-16.72h16.72c4.63,0,8.58-1.64,11.84-4.92,3.25-3.28,4.88-7.16,4.88-11.64V87.56c0-4.53-1.65-8.42-4.96-11.68-3.31-3.25-7.23-4.88-11.76-4.88h-16.72v116.56Z"/>
    <path class="cls-55" d="M285.78,204.28V54.28h66.72c9.11,0,16.94,3.28,23.48,9.84,6.54,6.56,9.8,14.38,9.8,23.44v9.06c0,7.45-2.55,14.62-7.66,21.52-5.1,6.9-13.65,10.35-25.62,10.35h16.56c4.58,0,8.52,1.64,11.8,4.92s4.92,7.21,4.92,11.8v59.06h-33.28v-50c0-4.58-1.65-8.52-4.96-11.8-3.31-3.28-7.23-4.92-11.76-4.92h-16.72v66.72h-33.28Zm33.28-83.28h16.72c4.53,0,8.45-1.65,11.76-4.96s4.96-7.23,4.96-11.76v-16.72c0-4.53-1.65-8.42-4.96-11.68-3.31-3.25-7.23-4.88-11.76-4.88h-16.72v50Z"/>
    <path class="cls-55" d="M419.06,204.28V54.28h83.28v16.72h-50v50h33.44v16.56h-33.44v50h50v16.72h-83.28Z"/>
    <path class="cls-55" d="M535.77,204.28V87.56c0-9.11,3.27-16.94,9.8-23.48s14.36-9.8,23.48-9.8h33.44c9.11,0,16.94,3.28,23.48,9.84,6.54,6.56,9.8,14.38,9.8,23.44v116.72h-33.28v-66.72h-33.44v66.72h-33.28Zm33.28-83.28h33.44v-33.44c0-4.53-1.65-8.42-4.96-11.68-3.31-3.25-7.23-4.88-11.76-4.88s-8.52,1.63-11.8,4.88c-3.28,3.26-4.92,7.15-4.92,11.68v33.44Z"/>
    <path class="cls-55" d="M669.05,204.28V54.28h7.58l71.25,71.09,71.17-71.09h16.72V204.28h-33.44V112.56l-58.52,58.52-58.05-58.52v91.72h-16.72Z"/>
    <path class="cls-55" d="M1017.88,171c-1.46,22.19-12.55,33.28-33.28,33.28h-33.44c-9.12,0-16.94-3.27-23.48-9.8-6.54-6.54-9.8-14.36-9.8-23.48V87.56c0-8.96,3.21-16.74,9.65-23.36,6.43-6.61,14.31-9.92,23.63-9.92h33.44c20.94,0,32.03,11.09,33.28,33.28h-16.72c-1.3-11.04-6.82-16.56-16.56-16.56h-16.72c-4.58,0-8.52,1.63-11.8,4.88-3.28,3.26-4.92,7.15-4.92,11.68v83.44c0,4.48,1.63,8.36,4.88,11.64,3.25,3.28,7.2,4.92,11.84,4.92h16.72c9.79,0,15.31-5.52,16.56-16.56h16.72Z"/>
    <path class="cls-55" d="M1051.16,204.28V87.56c0-9.11,3.27-16.94,9.8-23.48,6.54-6.54,14.36-9.8,23.48-9.8h33.44c9.11,0,16.94,3.28,23.48,9.84,6.54,6.56,9.8,14.38,9.8,23.44v116.72h-33.28v-66.72h-33.44v66.72h-33.28Zm33.28-83.28h33.44v-33.44c0-4.53-1.65-8.42-4.96-11.68-3.31-3.25-7.23-4.88-11.76-4.88s-8.52,1.63-11.8,4.88c-3.28,3.26-4.92,7.15-4.92,11.68v33.44Z"/>
    <path class="cls-55" d="M1201,204.28V71h-33.28v-16.72h100v16.72h-33.28V204.28h-33.44Z"/>
    <path class="cls-55" d="M1384.44,171c-1.46,22.19-12.55,33.28-33.28,33.28h-33.44c-9.12,0-16.94-3.27-23.48-9.8-6.54-6.54-9.8-14.36-9.8-23.48V87.56c0-8.96,3.21-16.74,9.65-23.36,6.43-6.61,14.31-9.92,23.63-9.92h33.44c20.94,0,32.03,11.09,33.28,33.28h-16.72c-1.3-11.04-6.82-16.56-16.56-16.56h-16.72c-4.58,0-8.52,1.63-11.8,4.88-3.28,3.26-4.92,7.15-4.92,11.68v83.44c0,4.48,1.63,8.36,4.88,11.64,3.25,3.28,7.2,4.92,11.84,4.92h16.72c9.79,0,15.31-5.52,16.56-16.56h16.72Z"/>
    <path class="cls-55" d="M1417.72,204.28V54.28h33.28V121h33.44V54.28h33.28V204.28h-33.28v-66.72h-33.44v66.72h-33.28Z"/>
    <path class="cls-55" d="M1551,204.28V54.28h83.28v16.72h-50v50h33.44v16.56h-33.44v50h50v16.72h-83.28Z"/>
    <path class="cls-55" d="M1667.72,204.28V54.28h66.72c9.11,0,16.94,3.28,23.48,9.84,6.54,6.56,9.8,14.38,9.8,23.44v9.06c0,7.45-2.55,14.62-7.66,21.52-5.11,6.9-13.65,10.35-25.62,10.35h16.56c4.58,0,8.52,1.64,11.8,4.92s4.92,7.21,4.92,11.8v59.06h-33.28v-50c0-4.58-1.65-8.52-4.96-11.8-3.31-3.28-7.23-4.92-11.76-4.92h-16.72v66.72h-33.28Zm33.28-83.28h16.72c4.53,0,8.45-1.65,11.76-4.96,3.31-3.31,4.96-7.23,4.96-11.76v-16.72c0-4.53-1.65-8.42-4.96-11.68-3.31-3.25-7.23-4.88-11.76-4.88h-16.72v50Z"/>
  </g>
  <g>
    <path class="cls-51" d="M165.67,220.68V70.68h66.72c9.11,0,16.94,3.28,23.48,9.84,6.54,6.56,9.8,14.38,9.8,23.44v83.44c0,9.01-3.27,16.81-9.8,23.4-6.54,6.59-14.36,9.88-23.48,9.88h-66.72Zm33.28-16.72h16.72c4.63,0,8.58-1.64,11.84-4.92,3.25-3.28,4.88-7.16,4.88-11.64V103.96c0-4.53-1.65-8.42-4.96-11.68-3.31-3.25-7.23-4.88-11.76-4.88h-16.72v116.56Z"/>
    <path class="cls-51" d="M298.95,220.68V70.68h66.72c9.11,0,16.94,3.28,23.48,9.84,6.54,6.56,9.8,14.38,9.8,23.44v9.06c0,7.45-2.55,14.62-7.66,21.52-5.1,6.9-13.65,10.35-25.62,10.35h16.56c4.58,0,8.52,1.64,11.8,4.92s4.92,7.21,4.92,11.8v59.06h-33.28v-50c0-4.58-1.65-8.52-4.96-11.8-3.31-3.28-7.23-4.92-11.76-4.92h-16.72v66.72h-33.28Zm33.28-83.28h16.72c4.53,0,8.45-1.65,11.76-4.96s4.96-7.23,4.96-11.76v-16.72c0-4.53-1.65-8.42-4.96-11.68-3.31-3.25-7.23-4.88-11.76-4.88h-16.72v50Z"/>
    <path class="cls-51" d="M432.22,220.68V70.68h83.28v16.72h-50v50h33.44v16.56h-33.44v50h50v16.72h-83.28Z"/>
    <path class="cls-51" d="M548.94,220.68V103.96c0-9.11,3.27-16.94,9.8-23.48s14.36-9.8,23.48-9.8h33.44c9.11,0,16.94,3.28,23.48,9.84,6.54,6.56,9.8,14.38,9.8,23.44v116.72h-33.28v-66.72h-33.44v66.72h-33.28Zm33.28-83.28h33.44v-33.44c0-4.53-1.65-8.42-4.96-11.68-3.31-3.25-7.23-4.88-11.76-4.88s-8.52,1.63-11.8,4.88c-3.28,3.26-4.92,7.15-4.92,11.68v33.44Z"/>
    <path class="cls-51" d="M682.22,220.68V70.68h7.58l71.25,71.09,71.17-71.09h16.72V220.68h-33.44v-91.72l-58.52,58.52-58.05-58.52v91.72h-16.72Z"/>
    <path class="cls-51" d="M1031.05,187.39c-1.46,22.19-12.55,33.28-33.28,33.28h-33.44c-9.12,0-16.94-3.27-23.48-9.8-6.54-6.54-9.8-14.36-9.8-23.48V103.96c0-8.96,3.21-16.74,9.65-23.36,6.43-6.61,14.31-9.92,23.63-9.92h33.44c20.94,0,32.03,11.09,33.28,33.28h-16.72c-1.3-11.04-6.82-16.56-16.56-16.56h-16.72c-4.58,0-8.52,1.63-11.8,4.88-3.28,3.26-4.92,7.15-4.92,11.68v83.44c0,4.48,1.63,8.36,4.88,11.64,3.25,3.28,7.2,4.92,11.84,4.92h16.72c9.79,0,15.31-5.52,16.56-16.56h16.72Z"/>
    <path class="cls-51" d="M1064.33,220.68V103.96c0-9.11,3.27-16.94,9.8-23.48,6.54-6.54,14.36-9.8,23.48-9.8h33.44c9.11,0,16.94,3.28,23.48,9.84,6.54,6.56,9.8,14.38,9.8,23.44v116.72h-33.28v-66.72h-33.44v66.72h-33.28Zm33.28-83.28h33.44v-33.44c0-4.53-1.65-8.42-4.96-11.68-3.31-3.25-7.23-4.88-11.76-4.88s-8.52,1.63-11.8,4.88c-3.28,3.26-4.92,7.15-4.92,11.68v33.44Z"/>
    <path class="cls-51" d="M1214.17,220.68V87.39h-33.28v-16.72h100v16.72h-33.28V220.68h-33.44Z"/>
    <path class="cls-51" d="M1397.61,187.39c-1.46,22.19-12.55,33.28-33.28,33.28h-33.44c-9.12,0-16.94-3.27-23.48-9.8-6.54-6.54-9.8-14.36-9.8-23.48V103.96c0-8.96,3.21-16.74,9.65-23.36,6.43-6.61,14.31-9.92,23.63-9.92h33.44c20.94,0,32.03,11.09,33.28,33.28h-16.72c-1.3-11.04-6.82-16.56-16.56-16.56h-16.72c-4.58,0-8.52,1.63-11.8,4.88-3.28,3.26-4.92,7.15-4.92,11.68v83.44c0,4.48,1.63,8.36,4.88,11.64,3.25,3.28,7.2,4.92,11.84,4.92h16.72c9.79,0,15.31-5.52,16.56-16.56h16.72Z"/>
    <path class="cls-51" d="M1430.89,220.68V70.68h33.28v66.72h33.44V70.68h33.28V220.68h-33.28v-66.72h-33.44v66.72h-33.28Z"/>
    <path class="cls-51" d="M1564.17,220.68V70.68h83.28v16.72h-50v50h33.44v16.56h-33.44v50h50v16.72h-83.28Z"/>
    <path class="cls-51" d="M1680.88,220.68V70.68h66.72c9.11,0,16.94,3.28,23.48,9.84,6.54,6.56,9.8,14.38,9.8,23.44v9.06c0,7.45-2.55,14.62-7.66,21.52-5.11,6.9-13.65,10.35-25.62,10.35h16.56c4.58,0,8.52,1.64,11.8,4.92s4.92,7.21,4.92,11.8v59.06h-33.28v-50c0-4.58-1.65-8.52-4.96-11.8-3.31-3.28-7.23-4.92-11.76-4.92h-16.72v66.72h-33.28Zm33.28-83.28h16.72c4.53,0,8.45-1.65,11.76-4.96,3.31-3.31,4.96-7.23,4.96-11.76v-16.72c0-4.53-1.65-8.42-4.96-11.68-3.31-3.25-7.23-4.88-11.76-4.88h-16.72v50Z"/>
  </g>
  <polyline class="cls-19" points="475.42 1078.11 869.56 1078.11 683.38 493.08"/>
  <path class="cls-19" d="M707.79,486.46l-120.7,22c-49.68,9.05-89.38,46.48-101.37,95.53-29.01,118.66-10.3,327.51-10.3,474.12"/>
  <line class="cls-12" x1="500.91" y1="920.79" x2="500.91" y2="892.86"/>
  <line class="cls-12" x1="500.42" y1="879.11" x2="500.42" y2="851.18"/>
  <path class="cls-20" d="M752.71,499.46s-5.26,205.26-50.39,173.41c-11.12,0-54.85-32.25-69.02-82.29-9.52-33.61,5.64-84.63,10.49-104.12-9.16-21.97-38.36-11.35-9.16-75.06,29.2-63.71-26.55-58.4,79.64-167.24,37.16-23.89-10.62-45.13,111.49-53.09,122.11-7.96,153.96,13.27,153.96,13.27,0,0,35.99-12.84,67.11,33.4s82.88-2.87,104.11,95.34c21.24,98.22-34.51,148.65-34.51,148.65"/>
  <path class="cls-18" d="M750.42,903.11s-272.5-20.99-280,29c-.68,4.52-.02,.88-2,5-19.76,41.13-57,141-57,141h937l39-132-637-43Z"/>
  <path class="cls-21" d="M742.95,513.06s-15.93-63.71-59.58-19.98c-8.73,8.74-15.28,49.18-9.44,78.38,10.62,53.09,51.42,61.99,51.42,61.99"/>
  <path class="cls-21" d="M756.42,798.11l-19,104s162.23,163.16,214.62,49.08c52.38-114.08-16.11-96.95-16.11-96.95l-179.5-56.12Z"/>
  <path class="cls-21" d="M720.9,667.56l37.46-268.48s140.35,43.8,148.35,13.64c45.16-.96,61.79,27.5,106.18-7.96,47.05-.96,35.84,3.98,54.42-6.64,14.47,0,49.05,81.26,63.65,117.25,4.41,10.87,6.17,22.63,5.14,34.32l-19.68,221.4s5.31,82.29-69.02,95.56c-57.6,10.29-204.21-36.46-268.11-61.05-14.97-5.76-37.07-21.99-50.05-37.71-5.43-6.57-8.35-14.86-8.35-23.39v-76.94Z"/>
  <circle cx="869.56" cy="545.45" r="22.56"/>
  <circle cx="1012.9" cy="545.45" r="22.56"/>
  <path class="cls-31" d="M952.03,570.27s31.68,48.32,36.11,71.83c4.42,23.51-3.51,24.22-16.74,25.21"/>
  <path class="cls-31" d="M973.67,667.43c-7.39,.55-19.08-1.06-27.97-2.59-9.5-1.64-17.09-9.34-17.81-18.95"/>
  <path class="cls-24" d="M906.45,486.72c-6.6-5.29-29.91-14.8-39.44-28.99-13.75-20.45-31.58-33.75-81.27,9.5"/>
  <path class="cls-24" d="M980.86,478.11s32.37,12.21,74.19-5.56c41.82-17.78,33.25-7.82,33.25-7.82"/>
  <path class="cls-22" d="M952.03,713.95s-17.98-29.19-45.58-13.24c-27.61-5.28-59.46-19.85-59.46-19.85,0,0,67.03,77.24,106.18,72.97,39.15-4.27,71.67-31.85,71.67-31.85,0,0-63.34-39.95-72.81-8.03Z"/>
  <path class="cls-31" d="M833.72,671.54s143.35,106.18,191.13,50.44"/>
  <line class="cls-21" x1="1078.66" y1="580.17" x2="1054.89" y2="569.78"/>
  <line class="cls-21" x1="816.89" y1="549.55" x2="793.12" y2="539.16"/>
  <line class="cls-21" x1="819.99" y1="573.49" x2="794.67" y2="583.35"/>
  <line class="cls-21" x1="1056.05" y1="544.23" x2="1079.82" y2="533.84"/>
  <g>
    <circle class="cls-23" cx="1173.92" cy="870.61" r="236"/>
    <circle cx="1043.51" cy="829.48" r="18.91"/>
    <path class="cls-24" d="M1012.42,923.34s167.84,132.05,342.5-9.73"/>
    <circle cx="1304.97" cy="829.02" r="18.91"/>
  </g>
  <path class="cls-21" d="M1353.42,717.11c-135.5,112.92-22-41-32-32-2.27,2.04-.87-.83,2.18-.83h60.93c5.37,0,10.09,3.55,11.58,8.71l25.68,89.05c2.6,9.02-2.3,18.49-11.17,21.57l-7.2,2.5s-32-104-50-89Z"/>
  <path class="cls-21" d="M1387.42,689.11l-82.45,69.38s-26,42.31,10.45,26.62,85-64,85-64l-13-32Z"/>
  <path class="cls-21" d="M1401.63,717.78l-57.21,54.33s-29.45,40.69,7,25,61.21-45.33,61.21-45.33l-11-34Z"/>
  <rect class="cls-4" x="1369.14" y="391.53" width="397.28" height="204.81" rx="40.93" ry="40.93"/>
  <rect class="cls-13" x="1357.42" y="376.11" width="397.28" height="204.81" rx="40.93" ry="40.93"/>
  <rect class="cls-29" x="1357.42" y="376.11" width="397.28" height="204.81" rx="40.93" ry="40.93"/>
  <line class="cls-12" x1="500.38" y1="835.52" x2="500.38" y2="807.59"/>
  <line class="cls-12" x1="500.38" y1="790.52" x2="500.38" y2="762.59"/>
  <line class="cls-12" x1="500.38" y1="745.52" x2="500.38" y2="717.59"/>
  <line class="cls-12" x1="499.97" y1="699.33" x2="502.97" y2="671.04"/>
  <line class="cls-9" x1="506.38" y1="651.12" x2="511.42" y2="622.11"/>
  <line class="cls-44" x1="516.42" y1="601.11" x2="528.03" y2="573.49"/>
  <line class="cls-44" x1="545.38" y1="557.51" x2="569.49" y2="542.85"/>
  <line class="cls-44" x1="588.63" y1="533.84" x2="617.42" y2="528.11"/>
  <rect class="cls-28" x="148.56" y="316.66" width="79.35" height="802.94" transform="translate(109.66 -20.09) rotate(8.61)"/>
  <rect class="cls-27" x="100.79" y="421.08" width="47.16" height="298.71" transform="translate(108.3 -13.18) rotate(10.72)"/>
  <rect class="cls-27" x="149.12" y="369.18" width="47.16" height="418.93" transform="translate(110.67 -22.03) rotate(10.72)"/>
  <rect class="cls-27" x="206.24" y="343.25" width="47.16" height="414.31" transform="translate(106.41 -33.15) rotate(10.72)"/>
  <rect class="cls-27" x="251.09" y="372.49" width="47.16" height="418.93" transform="translate(113.07 -40.94) rotate(10.72)"/>
  <rect class="cls-27" x="346.13" y="467.54" width="47.16" height="298.71" transform="translate(121.23 -58.01) rotate(10.72)"/>
  <rect class="cls-27" x="48.98" y="438.74" width="47.16" height="298.71" transform="translate(110.68 -3.23) rotate(10.72)"/>
  <rect class="cls-27" x="298.09" y="413.03" width="47.16" height="378.24" transform="translate(117.64 -49.33) rotate(10.72)"/>
  <g>
    <path class="cls-47" d="M129.46,503.3l8.65-45.69,20.32,3.85c2.78,.53,4.97,1.98,6.58,4.35,1.61,2.38,2.16,4.94,1.63,7.7l-.49,2.57c-.56,2.97-1.85,5.14-3.86,6.52-2.01,1.38-4.74,1.95-8.2,1.7,3.38,.64,5.72,2.14,7.02,4.5s1.7,4.88,1.19,7.56l-.49,2.57c-.52,2.75-1.97,4.93-4.36,6.56-2.39,1.63-4.95,2.18-7.7,1.66l-20.32-3.85Zm14.94-23.45l5.09,.96c1.38,.26,2.67-.02,3.87-.83s1.93-1.92,2.19-3.29l.96-5.09c.26-1.38-.02-2.66-.84-3.84-.82-1.18-1.92-1.9-3.3-2.17l-5.09-.96-2.88,15.23Zm-3.84,20.27l5.09,.96c1.38,.26,2.67-.01,3.87-.82,1.2-.81,1.92-1.89,2.18-3.26l.96-5.09c.64-3.39-.73-5.41-4.13-6.06l-5.09-.96-2.88,15.23Z"/>
    <path class="cls-47" d="M170.06,510.99l8.65-45.69,25.37,4.8-.96,5.09-15.23-2.88-2.88,15.23,10.18,1.93-.96,5.05-10.18-1.93-2.88,15.23,15.23,2.88-.96,5.09-25.37-4.8Z"/>
    <path class="cls-47" d="M214.26,472.03l10.14,1.92-7.69,40.6,5.09,.96c1.41,.27,2.71,0,3.89-.82,1.18-.81,1.9-1.9,2.16-3.26l6.73-35.55,10.14,1.92-7.69,40.6,5.09,.96c1.38,.26,2.66-.01,3.84-.83,1.18-.81,1.9-1.9,2.16-3.26l6.73-35.55,10.18,1.93-5.37,28.34c-.9,4.73-3.37,8.48-7.42,11.25-4.05,2.77-8.46,3.71-13.21,2.81l-13.11-2.48,.31-1.62c-2.15,.71-4.66,.79-7.52,.25l-13.11-2.48,8.65-45.69Z"/>
    <path class="cls-47" d="M266.53,529.25l6.73-35.55c.53-2.78,1.97-4.97,4.34-6.59s4.94-2.16,7.72-1.63l10.18,1.93c2.78,.53,4.97,1.98,6.58,4.35,1.61,2.38,2.16,4.94,1.63,7.7l-6.73,35.55-10.14-1.92,3.85-20.32-10.18-1.93-3.85,20.32-10.14-1.92Zm14.94-23.45l10.18,1.93,1.93-10.18c.26-1.38-.02-2.66-.84-3.84-.82-1.18-1.92-1.9-3.3-2.17s-2.69,0-3.87,.81c-1.19,.8-1.91,1.89-2.17,3.27l-1.93,10.18Z"/>
    <path class="cls-47" d="M307.12,536.94l8.65-45.69,20.32,3.85c2.78,.53,4.97,1.98,6.58,4.35,1.61,2.38,2.16,4.94,1.63,7.7l-.52,2.76c-.43,2.27-1.62,4.31-3.57,6.11-1.95,1.81-4.75,2.37-8.4,1.67l5.05,.96c1.4,.26,2.5,.99,3.31,2.18,.81,1.19,1.08,2.48,.82,3.88l-3.41,17.99-10.14-1.92,2.88-15.23c.26-1.4-.01-2.69-.83-3.88-.82-1.19-1.92-1.92-3.3-2.18l-5.09-.96-3.85,20.32-10.14-1.92Zm14.94-23.45l5.09,.96c1.38,.26,2.67-.02,3.87-.83s1.93-1.92,2.19-3.29l.96-5.09c.26-1.38-.02-2.66-.84-3.84-.82-1.18-1.92-1.9-3.3-2.17l-5.09-.96-2.88,15.23Z"/>
    <path class="cls-47" d="M347.72,544.63l8.65-45.69,25.37,4.8-.96,5.09-15.23-2.88-2.88,15.23,10.18,1.93-.96,5.05-10.18-1.93-2.88,15.23,15.23,2.88-.96,5.09-25.37-4.8Z"/>
  </g>
  <g class="cls-56">
    <path class="cls-11" d="M243.44,637.78l-6.5,46.35s-4.54,14.81-9.98,17.76,.55,12.83,7.95,13.85c4.95,.68,18.84-2.04,18.84-2.04l8.39-2.54-18.69-73.37"/>
    <path class="cls-11" d="M332.56,602.14l4.13,79.79c.05,.49,1.12,1.42,.9,1.86l-6.85,11.81c-.39,.81-1.63,1.74-2.59,1.96l-12.7,5.81c-1.29,.3-2.22,1.26-2.38,2.43l-1.26,9.17c-.24,1.74,1.26,3.33,3.24,3.45l37.32,2.18c.76,.04,5.92,.85,8.21,.26,4.5-1.15,8.86-8.21,7.6-12.29l-9.65-20.46c-1.16-2.33-2.18-4.19-2.36-6.7l-5.22-71.22c-.03-.75-.38-1.46-.97-2.01l-12.98-12.04c-.69-.64-1.66-1-2.65-.96l-.63,.02c-2.87,.1-4.17,3.16-2.13,5.03h0c.56,.52,.91,1.19,.97,1.89Z"/>
    <path class="cls-37" d="M313.34,703.88l-1.7,21.44-51.11,.5s-10-.93-7.8-5.67c2.19-4.74,3.92-5.91,5.2-9.16"/>
    <path class="cls-37" d="M296.35,588.22l25.86,5.56c6.44,1.38,11.15,6.92,11.48,13.5l3.82,76.48c.14,2.87-.62,5.71-2.19,8.12l-4.62,7.12-58.14,16.29s-12,3.88-17.2-10.16-5.04-25.76-5.04-25.76l-7.66-35.72s1.11-10.34,3.08-14.03c1.35-2.54,9.5-22.49,14.47-34.72,2.3-5.66,8.02-9.16,14.1-8.62l22.04,1.93Z"/>
    <circle cx="269.76" cy="639.5" r="4.88"/>
    <circle cx="301.83" cy="640.9" r="4.88"/>
    <path class="cls-30" d="M294.04,627.68c1.57-.94,6.85-2.29,9.31-5.05,3.55-3.98,7.77-6.3,17.14,4.44"/>
    <path class="cls-30" d="M275.92,623.78s-7.3,1.66-15.74-3.38c-8.44-5.05-6.9-2.66-6.9-2.66"/>
    <path class="cls-8" d="M282.23,647.17s-8.22,9.42-9.86,14.33,.04,5.3,2.84,5.9c1.57,.34,4.12,.34,6.07,.27,2.08-.07,3.94-1.5,4.38-3.54,.16-.75,.07-1.4-.58-1.66"/>
    <path class="cls-40" d="M281.21,673.68s.05,2.75,8.34-.56,15.48,4.5,15.48,4.5c0,0-10.04,7.6-16.45,8.21-6.41,.61-20.42-6.15-20.42-6.15,0,0,7.79-8.9,13.04-6.01Z"/>
    <line class="cls-37" x1="305.04" y1="677.63" x2="268.17" y2="679.69"/>
    <line class="cls-37" x1="311.98" y1="645.34" x2="318.07" y2="646.65"/>
    <line class="cls-37" x1="256.02" y1="644.22" x2="261.43" y2="642.7"/>
    <line class="cls-37" x1="308.8" y1="650.16" x2="314.67" y2="654.14"/>
    <path class="cls-32" d="M349.58,612.2c3.34-2.29,6.3-4.39,8.92-6.31,23.28-17.09,20.2-20.81,20.73-28.56,.59-8.62-45.83-25.45-62.89-28.31-13.52-7.02-73.56,4.88-76.87,7.32s17,40.45,20.5,38.48,47.76,1.07,58.24,2.15c10.49,1.08,32.66,15.59,32.66,15.59"/>
    <g>
      <path class="cls-53" d="M349.72,611.28l-.24-.07c.12-.08,.23-.16,.35-.24,.05,.03,.11,.07,.16,.1-.09,.07-.18,.14-.27,.21Z"/>
      <path class="cls-54" d="M260.42,593.65l-3.05-1.31-8.3-12.47s0,0,0,0l75.84,4.95s32.3,9.67,33.97,18.59c-.99,1.23-3.97,3.74-6.84,6.04-.71,.49-1.44,1-2.19,1.52-4.34-2.76-22.52-14.04-31.72-14.98-7.07-.73-29.46-2.34-44.39-2.72-6.44-.16-11.48-.09-13.31,.38Z"/>
    </g>
    <path class="cls-6" d="M360.07,604.11s-10.16-11.33-27.11-17.2c-6.99-2.42-19.75-3.99-33.25-5.01-24.07-1.82-50.54-1.31-50.54-1.31"/>
  </g>
  <g class="cls-56">
    <path class="cls-38" d="M214.09,539.17l-53.54,1.38s-40.17-5.52-41.83,19.51c-1.66,25.03-17.02,67.47-17.02,67.47l-10.22,49.07,51.29,5.15"/>
    <path class="cls-37" d="M134.63,599.62s-2.83-14.26-12.96-5.07c-2.03,1.84-3.91,10.71-2.94,17.23,1.77,11.86,9.4,12.23,9.4,12.23"/>
    <path class="cls-37" d="M143.85,671.51l-2.34,21.89,51.31,10.18s10.23,.96,8.92-4.23c-1.31-5.19-2.82-6.69-3.5-10.2"/>
    <path class="cls-37" d="M182.82,558.41l-27.06,.7c-6.74,.17-12.52,4.85-14.1,11.41l-18.32,76.2c-.69,2.86-.46,5.86,.66,8.58l3.3,8.04,55.39,27.39s11.33,6.18,19.23-6.96c7.89-13.14,9.94-24.95,9.94-24.95l14.46-34.48s.84-10.61-.44-14.69c-.88-2.81-5.3-24.42-7.98-37.66-1.24-6.13-6.33-10.73-12.55-11.34l-22.54-2.23Z"/>
    <circle cx="199.86" cy="615.01" r="5"/>
    <circle cx="167.35" cy="610.35" r="5"/>
    <path class="cls-30" d="M177.68,598.53c-1.4-1.24-6.45-3.6-8.41-6.84-2.82-4.67-6.62-7.81-18.08,1.22"/>
    <path class="cls-30" d="M196.64,598.04s7.03,3.05,16.47-.42c9.44-3.48,7.44-1.37,7.44-1.37"/>
    <path class="cls-8" d="M185.86,620.37s6.48,11.03,7.2,16.28-1.04,5.32-3.98,5.39c-1.64,.04-4.21-.44-6.16-.88-2.08-.47-3.68-2.25-3.73-4.38-.02-.78,.2-1.42,.9-1.56"/>
    <path class="cls-40" d="M181.87,647.23s-.57,2.76-8.29-2.14c-7.72-4.9-16.42,1.6-16.42,1.6,0,0,8.66,9.54,14.99,11.38s21.7-2.32,21.7-2.32c0,0-6.15-10.43-11.98-8.51Z"/>
    <line class="cls-37" x1="157.16" y1="646.69" x2="193.85" y2="655.74"/>
    <line class="cls-37" x1="156.29" y1="612.9" x2="149.92" y2="613.06"/>
    <line class="cls-37" x1="212.78" y1="622.37" x2="207.64" y2="619.81"/>
    <path class="cls-36" d="M145.61,563.48c17.56-48.67,37.21-5.07,37.21-5.07l-37.21,5.07Z"/>
    <path class="cls-8" d="M145.61,563.48c-1.9,.86-9.77,13.94-24.27,16.5"/>
    <path class="cls-36" d="M182.82,558.41c14.24-14.52,22.69-19.26,27.59-18.93,10.78,.74,4.35,26.06,4.35,26.06l-31.94-7.13Z"/>
    <line class="cls-37" x1="158.58" y1="618.35" x2="151.92" y2="621.24"/>
  </g>
  <g>
    <path class="cls-2" d="M1407.19,494.69l17.85-1.12c.39,2.9,1.17,5.11,2.36,6.63,1.93,2.46,4.69,3.69,8.28,3.69,2.68,0,4.74-.63,6.19-1.88,1.45-1.26,2.17-2.71,2.17-4.37s-.69-2.98-2.07-4.22c-1.38-1.24-4.58-2.42-9.61-3.52-8.23-1.85-14.09-4.31-17.6-7.37-3.53-3.06-5.3-6.97-5.3-11.72,0-3.12,.9-6.07,2.71-8.84,1.81-2.77,4.53-4.96,8.16-6.54,3.63-1.59,8.61-2.38,14.93-2.38,7.76,0,13.67,1.44,17.74,4.33,4.07,2.89,6.49,7.47,7.27,13.77l-17.68,1.04c-.47-2.73-1.46-4.72-2.96-5.96-1.5-1.24-3.58-1.86-6.23-1.86-2.18,0-3.82,.46-4.93,1.39-1.1,.92-1.66,2.05-1.66,3.38,0,.97,.46,1.84,1.37,2.61,.88,.8,2.98,1.55,6.29,2.24,8.2,1.77,14.07,3.55,17.62,5.36,3.55,1.81,6.13,4.05,7.74,6.73s2.42,5.67,2.42,8.99c0,3.89-1.08,7.48-3.23,10.77-2.15,3.29-5.16,5.78-9.03,7.47-3.87,1.7-8.74,2.55-14.62,2.55-10.33,0-17.47-1.99-21.45-5.96-3.97-3.98-6.23-9.03-6.75-15.16Z"/>
    <path class="cls-2" d="M1467.44,454.07h57.02v14.99h-19.13v45.72h-18.76v-45.72h-19.13v-14.99Z"/>
    <path class="cls-2" d="M1564.52,504.76h-21.3l-2.96,10.02h-19.15l22.82-60.71h20.46l22.81,60.71h-19.64l-3.04-10.02Zm-3.89-13.13l-6.7-21.82-6.63,21.82h13.33Z"/>
    <path class="cls-2" d="M1593.41,514.78v-60.71h31.26c5.8,0,10.23,.5,13.29,1.49s5.54,2.84,7.41,5.53c1.88,2.69,2.82,5.97,2.82,9.83,0,3.37-.72,6.27-2.15,8.72-1.44,2.44-3.41,4.42-5.92,5.94-1.6,.97-3.8,1.77-6.59,2.4,2.23,.75,3.86,1.49,4.88,2.24,.69,.5,1.69,1.56,3,3.19s2.19,2.89,2.63,3.77l9.08,17.59h-21.2l-10.03-18.55c-1.27-2.4-2.4-3.96-3.4-4.68-1.35-.94-2.89-1.41-4.6-1.41h-1.66v24.64h-18.84Zm18.84-36.11h7.91c.86,0,2.51-.28,4.97-.83,1.24-.25,2.26-.88,3.04-1.91,.79-1.02,1.18-2.19,1.18-3.52,0-1.96-.62-3.46-1.86-4.51-1.24-1.05-3.58-1.57-7-1.57h-8.24v12.34Z"/>
    <path class="cls-2" d="M1654.12,454.07h57.02v14.99h-19.13v45.72h-18.76v-45.72h-19.13v-14.99Z"/>
  </g>
  <g class="cls-46">
    <path class="cls-3" d="M1416.07,502.25l17.85-1.12c.39,2.9,1.17,5.11,2.36,6.63,1.93,2.46,4.69,3.69,8.28,3.69,2.68,0,4.74-.63,6.19-1.88,1.45-1.26,2.17-2.71,2.17-4.37s-.69-2.98-2.07-4.22c-1.38-1.24-4.58-2.42-9.61-3.52-8.23-1.85-14.09-4.31-17.6-7.37-3.53-3.06-5.3-6.97-5.3-11.72,0-3.12,.9-6.07,2.71-8.84,1.81-2.77,4.53-4.96,8.16-6.54,3.63-1.59,8.61-2.38,14.93-2.38,7.76,0,13.67,1.44,17.74,4.33,4.07,2.89,6.49,7.47,7.27,13.77l-17.68,1.04c-.47-2.73-1.46-4.72-2.96-5.96-1.5-1.24-3.58-1.86-6.23-1.86-2.18,0-3.82,.46-4.93,1.39-1.1,.92-1.66,2.05-1.66,3.38,0,.97,.46,1.84,1.37,2.61,.88,.8,2.98,1.55,6.29,2.24,8.2,1.77,14.07,3.55,17.62,5.36,3.55,1.81,6.13,4.05,7.74,6.73s2.42,5.67,2.42,8.99c0,3.89-1.08,7.48-3.23,10.77-2.15,3.29-5.16,5.78-9.03,7.47-3.87,1.7-8.74,2.55-14.62,2.55-10.33,0-17.47-1.99-21.45-5.96-3.97-3.98-6.23-9.03-6.75-15.16Z"/>
    <path class="cls-3" d="M1476.33,461.63h57.02v14.99h-19.13v45.72h-18.76v-45.72h-19.13v-14.99Z"/>
    <path class="cls-3" d="M1573.4,512.32h-21.3l-2.96,10.02h-19.15l22.82-60.71h20.46l22.81,60.71h-19.64l-3.04-10.02Zm-3.89-13.13l-6.7-21.82-6.63,21.82h13.33Z"/>
    <path class="cls-3" d="M1602.29,522.34v-60.71h31.26c5.8,0,10.23,.5,13.29,1.49s5.54,2.84,7.41,5.53c1.88,2.69,2.82,5.97,2.82,9.83,0,3.37-.72,6.27-2.15,8.72-1.44,2.44-3.41,4.42-5.92,5.94-1.6,.97-3.8,1.77-6.59,2.4,2.23,.75,3.86,1.49,4.88,2.24,.69,.5,1.69,1.56,3,3.19s2.19,2.89,2.63,3.77l9.08,17.59h-21.2l-10.03-18.55c-1.27-2.4-2.4-3.96-3.4-4.68-1.35-.94-2.89-1.41-4.6-1.41h-1.66v24.64h-18.84Zm18.84-36.11h7.91c.86,0,2.51-.28,4.97-.83,1.24-.25,2.26-.88,3.04-1.91,.79-1.02,1.18-2.19,1.18-3.52,0-1.96-.62-3.46-1.86-4.51-1.24-1.05-3.58-1.57-7-1.57h-8.24v12.34Z"/>
    <path class="cls-3" d="M1663,461.63h57.02v14.99h-19.13v45.72h-18.76v-45.72h-19.13v-14.99Z"/>
  </g>
  <rect class="cls-26" x=".5" y="-.5" width="1920" height="1080"/>
  <rect class="cls-25" x="196.5" y="141.5" width="1527" height="816" rx="75.89" ry="75.89"/>
  <rect class="cls-15" x="274.5" y="220.5" width="632" height="678" rx="43.4" ry="43.4"/>
  <rect class="cls-14" x="1016" y="222" width="632" height="678" rx="43.4" ry="43.4"/>
  <g>
    <path class="cls-48" d="M1455.68,528.45c65.53,0,118.65,53.12,118.65,118.65s-53.12,118.65-118.65,118.65-118.65-53.12-118.65-118.65,53.12-118.65,118.65-118.65"/>
    <path class="cls-10" d="M1529.98,655.99l.15,62.58s3.32,20.45,9.98,25.35-3.07,16.9-13.06,16.9c-6.69,0-24.58-6.14-24.58-6.14l-10.64-4.9,38.14-93.78"/>
    <path class="cls-10" d="M1418.44,592.51l-20.03,104.94c-.15,.64-1.74,1.68-1.54,2.3l6.91,16.9c.38,1.14,1.84,2.6,3.07,3.07l15.76,10.02c1.65,.63,2.71,2.07,2.71,3.66v12.38c0,2.34-2.27,4.18-4.92,3.97l-49.83-3.92c-1.01-.08-8,.04-10.92-1.15-5.75-2.34-10.24-12.49-7.82-17.67l16.51-25.35c1.97-2.87,3.65-5.15,4.35-8.45l19.91-93.38c.18-.98,.77-1.87,1.65-2.48l19.39-13.59c1.04-.73,2.38-1.01,3.68-.79l.83,.14c3.79,.66,4.95,4.95,1.91,7.05h0c-.84,.58-1.42,1.41-1.64,2.33Z"/>
    <path class="cls-41" d="M1425.33,730.79l-1.65,28.71,67.61,9.99s13.41,.6,11.37-6.09-4.11-8.55-5.22-13.09"/>
    <path class="cls-41" d="M1468.94,580.69l-35.27,2.64c-8.79,.66-16.03,7.14-17.67,15.79l-19.01,100.61c-.71,3.77-.22,7.68,1.41,11.16l4.82,10.28,74.04,32.19s15.18,7.33,24.64-10.32,11.37-33.2,11.37-33.2l16.66-45.92s.42-13.89-1.52-19.14c-1.33-3.61-8.49-31.53-12.83-48.63-2.01-7.92-8.95-13.59-17.11-14l-29.55-1.46Z"/>
    <circle cx="1494.8" cy="653.46" r="6.53"/>
    <circle cx="1452.07" cy="649.46" r="6.53"/>
    <path class="cls-30" d="M1464.8,633.37c-1.91-1.53-8.65-4.28-11.41-8.39-3.98-5.92-9.14-9.76-23.51,2.75"/>
    <path class="cls-30" d="M1489.51,631.52s9.36,3.53,21.46-1.61c12.1-5.14,9.62-2.26,9.62-2.26"/>
    <path class="cls-7" d="M1476.88,661.35s9.17,13.98,10.45,20.78-1.01,7.01-4.84,7.3c-2.14,.16-5.52-.31-8.09-.75-2.75-.47-4.94-2.7-5.15-5.48-.08-1.02,.17-1.86,1.07-2.1"/>
    <path class="cls-34" d="M1473.4,696.66s-.57,3.64-10.95-2.26c-10.38-5.9-21.33,3.14-21.33,3.14,0,0,11.91,11.9,20.3,13.88s28.17-4.42,28.17-4.42c0,0-8.69-13.21-16.18-10.34Z"/>
    <line class="cls-41" x1="1441.12" y1="697.54" x2="1489.58" y2="707"/>
    <line class="cls-41" x1="1437.81" y1="653.5" x2="1429.51" y2="654.12"/>
    <line class="cls-41" x1="1512.14" y1="662.23" x2="1505.26" y2="659.22"/>
    <line class="cls-41" x1="1441.15" y1="660.47" x2="1432.64" y2="664.67"/>
    <path class="cls-33" d="M1449.61,525.11c19.19-6.83,96.55,19.88,100.48,23.72,3.94,3.84-29.9,50.48-34.17,47.23-4.27-3.24-63.45-7.3-77.55-7.78-14.09-.49-46.11,14.69-46.11,14.69"/>
    <path class="cls-33" d="M1394.06,602.74c-4-3.64-7.54-6.96-10.66-9.99-27.73-26.88-22.96-31.26-22.25-41.61,.79-11.52,65.35-25.35,88.47-26.03"/>
    <g>
      <path class="cls-50" d="M1394.03,601.5l.33-.05c-.15-.13-.28-.26-.42-.39-.08,.04-.15,.07-.23,.1,.11,.11,.21,.22,.32,.33Z"/>
      <path class="cls-49" d="M1515.55,594.43l4.28-1.17,13.27-15.01s0,0,0,0l-101.36-7.28s-44.55,6.91-48.39,18.43c1.09,1.82,4.58,5.68,7.95,9.25,.85,.79,1.73,1.59,2.63,2.41,6.25-2.87,32.39-14.49,44.74-14.06,9.49,.33,39.46,2.27,59.3,4.5,8.56,.96,15.22,1.97,17.57,2.93Z"/>
    </g>
    <path class="cls-5" d="M1381.63,590.1s15.53-13.16,39.05-17.84c9.7-1.93,26.9-1.68,44.95-.57,32.22,1.98,67.18,7.48,67.18,7.48"/>
  </g>
  <g>
    <circle class="cls-48" cx="1215.01" cy="642.42" r="118.99"/>
    <g>
      <path class="cls-43" d="M1276.02,535.41l-71.89,5.39s-54.38-4.77-54.95,29c-.58,33.77-18.42,91.85-18.42,91.85l-10.5,66.65,69.31,3.53"/>
      <path class="cls-39" d="M1173.18,621.95s-4.75-18.99-17.76-5.96c-2.6,2.61-4.56,14.66-2.81,23.37,3.17,15.83,13.45,15.83,13.45,15.83"/>
      <path class="cls-41" d="M1190.33,718l-1.7,29.58,69.66,10.29s13.82,.61,11.72-6.27c-2.1-6.89-4.23-8.81-5.38-13.48"/>
      <path class="cls-41" d="M1235.25,563.35l-36.34,2.73c-9.05,.68-16.52,7.35-18.21,16.27l-19.59,103.67c-.73,3.89-.23,7.91,1.46,11.49l4.97,10.59,76.29,33.17s15.64,7.56,25.39-10.63c9.75-18.19,11.72-34.21,11.72-34.21l17.17-47.32s.43-14.32-1.56-19.72c-1.37-3.72-8.74-32.48-13.22-50.1-2.07-8.16-9.22-14-17.63-14.42l-30.45-1.51Z"/>
      <circle cx="1261.91" cy="638.33" r="6.73"/>
      <circle cx="1217.88" cy="634.21" r="6.73"/>
      <path class="cls-30" d="M1230.99,617.63c-1.97-1.58-8.92-4.41-11.76-8.64-4.1-6.1-9.41-10.06-24.23,2.83"/>
      <path class="cls-30" d="M1256.45,615.72s9.65,3.64,22.12-1.66c12.47-5.3,9.91-2.33,9.91-2.33"/>
      <path class="cls-7" d="M1243.44,646.46s9.44,14.41,10.76,21.41c1.32,7.01-1.05,7.22-4.99,7.52-2.2,.17-5.69-.31-8.34-.77-2.83-.49-5.09-2.78-5.31-5.65-.08-1.05,.17-1.92,1.1-2.16"/>
      <path class="cls-34" d="M1239.85,682.84s-.59,3.75-11.28-2.33c-10.7-6.08-21.98,3.24-21.98,3.24,0,0,12.27,12.26,20.91,14.3,8.64,2.04,29.02-4.56,29.02-4.56,0,0-8.96-13.61-16.67-10.65Z"/>
      <line class="cls-41" x1="1206.59" y1="683.74" x2="1256.52" y2="693.49"/>
      <line class="cls-41" x1="1203.18" y1="638.37" x2="1194.63" y2="639.01"/>
      <line class="cls-41" x1="1279.77" y1="647.36" x2="1272.68" y2="644.27"/>
      <path class="cls-42" d="M1185.56,572.63c20.4-66.6,49.7-9.28,49.7-9.28l-49.7,9.28Z"/>
      <path class="cls-7" d="M1185.56,572.63c-2.5,1.28-12.21,19.39-31.55,23.79"/>
      <path class="cls-42" d="M1235.25,563.35c18.18-20.46,29.24-27.4,35.85-27.28,14.55,.28,7.57,34.76,7.57,34.76l-43.42-7.48Z"/>
      <line class="cls-41" x1="1206.62" y1="645.55" x2="1197.86" y2="649.88"/>
    </g>
  </g>
  <g>
    <circle class="cls-52" cx="480.5" cy="623.06" r="139.5"/>
    <g>
      <path class="cls-41" d="M441.56,710.53l-2.12,36.72,86.46,12.77s17.15,.76,14.54-7.79c-2.61-8.55-5.25-10.93-6.67-16.74"/>
      <path class="cls-35" d="M424.36,602.68s-1.95,75.95-18.65,64.16c-4.11,0-20.29-11.93-25.54-30.45-3.52-12.44,2.09-31.31,3.88-38.53-3.39-8.13-14.19-4.2-3.39-27.77,10.8-23.57-9.82-21.61,29.47-61.88,13.75-8.84-3.93-16.7,41.25-19.64,45.18-2.95,56.97,4.91,56.97,4.91,0,0,13.32-4.75,24.83,12.36,11.51,17.11,30.67-1.06,38.52,35.28,7.86,36.34-12.77,55-12.77,55"/>
      <path class="cls-39" d="M420.75,607.71s-5.89-23.57-22.04-7.39c-3.23,3.23-5.65,18.2-3.49,29,3.93,19.64,21.31,25.74,21.31,25.74"/>
      <path class="cls-39" d="M412.59,664.88l13.86-99.34s51.93,16.21,54.89,5.05c16.71-.35,22.86,10.18,39.29-2.95,17.41-.35,13.26,1.47,20.14-2.46,6.88,0,26.03,49.6,26.03,49.6l-7.86,88.4s1.96,30.45-25.54,35.36c-21.31,3.81-75.56-13.49-99.2-22.59-7.08-2.72-18.46-11.77-21.61-18.66v-32.41Z"/>
      <circle cx="467.6" cy="619.7" r="8.35"/>
      <circle cx="520.64" cy="619.7" r="8.35"/>
      <path class="cls-7" d="M498.11,628.88s11.72,17.88,13.36,26.58c1.64,8.7-1.3,8.96-6.2,9.33"/>
      <path class="cls-7" d="M506.12,664.83c-2.73,.2-7.06-.39-10.35-.96-3.51-.61-6.32-3.45-6.59-7.01"/>
      <path class="cls-30" d="M481.25,597.97c-2.44-1.96-11.07-5.48-14.59-10.73-5.09-7.57-11.68-12.49-30.07,3.52"/>
      <path class="cls-30" d="M508.78,594.78s11.98,4.52,27.45-2.06c15.47-6.58,12.3-2.89,12.3-2.89"/>
      <path class="cls-16" d="M498.11,682.04s-6.65-10.8-16.87-4.9c-10.21-1.95-22-7.35-22-7.35,0,0,24.8,28.58,39.29,27,14.49-1.58,26.52-11.79,26.52-11.79,0,0-23.44-14.78-26.94-2.97Z"/>
      <path class="cls-7" d="M454.34,666.35s53.48,39.78,71.16,19.15"/>
      <line class="cls-41" x1="544.97" y1="632.54" x2="536.17" y2="628.7"/>
      <line class="cls-41" x1="448.11" y1="621.21" x2="439.31" y2="617.37"/>
      <line class="cls-41" x1="449.25" y1="630.07" x2="439.89" y2="633.72"/>
      <line class="cls-41" x1="536.6" y1="619.24" x2="545.4" y2="615.4"/>
    </g>
  </g>
  <g>
    <rect class="cls-1" x="560.5" y="287.29" width="297" height="243.8" rx="64.43" ry="64.43"/>
    <path class="cls-17" d="M648.7,525.59c0,58.2-45.85,86.51-37.87,61.34,21.1-66.59-6.98-61.34-6.98-61.34"/>
  </g>
  <text class="cls-57" transform="translate(585.86 332.4)"><tspan x="0" y="0">Hej, jeg er Dream.</tspan><tspan x="0" y="36">Klik på mig </tspan><tspan x="0" y="72">og få 1 point. </tspan><tspan x="0" y="108">Når du har fået</tspan><tspan x="0" y="144">over 25 points, </tspan><tspan x="0" y="180">har du vundet. </tspan></text>
  <polygon class="cls-45" points="596.5 788.5 546.02 659.13 695.41 694.71 634.5 718.5 708.5 775.5 689.5 796.5 617.5 737.5 596.5 788.5"/>
  <rect class="cls-1" x="1182.5" y="300.5" width="351" height="155" rx="64.43" ry="64.43"/>
  <path class="cls-17" d="M1294,452c0,37-46,55-38,39,21.17-42.34-7-39-7-39"/>
  <text class="cls-57" transform="translate(1229.36 351.11)"><tspan x="0" y="0">Du mister et liv,</tspan><tspan x="0" y="36">når du klikker på os.</tspan><tspan x="0" y="72">Du har i alt 3 liv.</tspan></text>
  <path class="cls-17" d="M1403,453s29.95,64.11,32,43c.97-10.01,5.66-47.87,25-44"/>
</svg>