<?xml version="1.0" encoding="UTF-8"?><svg id="a" xmlns="http://www.w3.org/2000/svg" viewBox="0 0 150 140"><defs><style>.b{fill:#d93a2b;stroke:#806fa6;stroke-miterlimit:10;stroke-width:6px;}</style></defs><path class="b" d="M74.26,136.96s51.73-47.93,65.74-66.87c.92-1.24,1.69-2.59,2.24-4.04,4.09-10.77,2.82-25.04,1.55-33.23-.68-4.35-2.5-8.44-5.32-11.81-33.25-39.6-65.88,1.09-65.88,1.09"/><path class="b" d="M76.36,135.71S24.5,89.15,10.49,70.21c-.92-1.24-1.69-2.59-2.24-4.04-4.09-10.77-2.82-25.04-1.55-33.23,.68-4.35,2.5-8.44,5.32-11.81,33.25-39.6,69.36,12.29,69.36,12.29"/></svg>