<?xml version="1.0" encoding="UTF-8"?><svg id="a" xmlns="http://www.w3.org/2000/svg" viewBox="0 0 160 170"><defs><style>.b{stroke:#f2c12e;}.b,.c,.d,.e,.f,.g,.h{stroke-miterlimit:10;}.b,.c,.d,.f,.g,.h{stroke-width:3px;}.b,.c,.e{fill:none;}.c,.d,.f,.g,.h{stroke:#806fa6;}.i{fill:#f26513;}.j{fill:#d94343;}.k{fill:#d42943;}.e{stroke:#000;stroke-width:4px;}.f{fill:#9e2443;}.g{fill:#f2bba7;}.h{fill:#f28379;}</style></defs><circle class="i" cx="80" cy="85.24" r="80"/><g><path class="d" d="M130.1,91.23l.1,42.2s2.24,13.79,6.73,17.09-2.07,11.39-8.8,11.39c-4.51,0-16.57-4.14-16.57-4.14l-7.18-3.3,25.72-63.23"/><path class="d" d="M54.89,48.43l-13.5,70.75c-.1,.43-1.17,1.13-1.04,1.55l4.66,11.39c.25,.77,1.24,1.75,2.07,2.07l10.63,6.76c1.11,.43,1.83,1.4,1.83,2.47v8.35c0,1.58-1.53,2.82-3.31,2.68l-33.6-2.64c-.68-.05-5.39,.03-7.36-.77-3.88-1.58-6.9-8.42-5.27-11.91l11.13-17.09c1.33-1.94,2.46-3.47,2.93-5.7l13.42-62.96c.12-.66,.52-1.26,1.11-1.68l13.07-9.16c.7-.49,1.61-.68,2.48-.53l.56,.1c2.55,.45,3.34,3.34,1.29,4.76h0c-.57,.39-.96,.95-1.1,1.57Z"/><path class="g" d="M59.54,141.66l-1.12,19.36,45.59,6.73s9.04,.4,7.67-4.11-2.77-5.76-3.52-8.82"/><path class="g" d="M88.94,40.46l-23.78,1.78c-5.92,.44-10.81,4.81-11.91,10.65l-12.82,67.84c-.48,2.54-.15,5.18,.95,7.52l3.25,6.93,49.92,21.7s10.24,4.94,16.62-6.96c6.38-11.9,7.67-22.39,7.67-22.39l11.23-30.96s.28-9.37-1.02-12.91c-.9-2.43-5.72-21.26-8.65-32.79-1.36-5.34-6.03-9.16-11.54-9.44l-19.93-.99Z"/><circle cx="106.38" cy="89.53" r="4.4"/><circle cx="77.57" cy="86.83" r="4.4"/><path class="e" d="M86.15,75.98c-1.29-1.03-5.83-2.89-7.69-5.65-2.68-3.99-6.16-6.58-15.85,1.85"/><path class="e" d="M102.81,74.73s6.31,2.38,14.47-1.09,6.49-1.53,6.49-1.53"/><path class="c" d="M94.3,94.85s6.18,9.43,7.04,14.01-.68,4.73-3.27,4.92c-1.44,.11-3.72-.21-5.46-.5-1.85-.32-3.33-1.82-3.47-3.7-.05-.69,.11-1.26,.72-1.41"/><path class="h" d="M91.95,118.65s-.38,2.45-7.38-1.52-14.38,2.12-14.38,2.12c0,0,8.03,8.02,13.68,9.36s18.99-2.98,18.99-2.98c0,0-5.86-8.91-10.91-6.97Z"/><line class="g" x1="70.18" y1="119.24" x2="102.86" y2="125.62"/><line class="g" x1="67.96" y1="89.55" x2="62.36" y2="89.97"/><line class="g" x1="118.07" y1="95.44" x2="113.43" y2="93.41"/><line class="g" x1="70.21" y1="94.25" x2="64.47" y2="97.08"/><path class="f" d="M38.45,55.32c-2.7-2.46-5.08-4.69-7.19-6.73C12.57,30.47,15.78,27.52,16.26,20.53c.53-7.77,44.06-17.09,59.65-17.55,12.94-4.6,65.1,13.41,67.75,16s-20.16,34.03-23.04,31.85-42.78-4.92-52.29-5.25c-9.5-.33-31.09,9.91-31.09,9.91"/><g><path class="j" d="M38.43,54.49l.22-.03c-.1-.09-.19-.17-.29-.26-.05,.02-.1,.05-.15,.07,.07,.08,.14,.15,.22,.22Z"/><path class="k" d="M120.37,49.73l2.88-.79,8.95-10.12s0,0,0,0l-68.34-4.91s-30.04,4.66-32.63,12.43c.73,1.22,3.09,3.83,5.36,6.23,.57,.53,1.17,1.07,1.77,1.62,4.21-1.93,21.84-9.77,30.17-9.48,6.4,.22,26.6,1.53,39.98,3.04,5.77,.65,10.26,1.33,11.84,1.98Z"/></g><path class="b" d="M30.07,46.81s10.47-8.87,26.33-12.03c6.54-1.3,18.13-1.14,30.31-.39,21.72,1.34,45.3,5.05,45.3,5.05"/></g></svg>