<?xml version="1.0" encoding="UTF-8"?><svg id="a" xmlns="http://www.w3.org/2000/svg" viewBox="0 0 160 170"><defs><style>.b,.c{fill:none;}.b,.c,.d,.e,.f,.g{stroke-miterlimit:10;}.b,.d,.e,.f,.g{stroke:#806fa6;stroke-width:3px;}.h{fill:#f26513;}.c{stroke:#000;stroke-width:4px;}.d{fill:#f2b544;}.e{fill:#f2bba7;}.f{fill:#f2c12e;}.g{fill:#f28379;}</style></defs><circle class="h" cx="80" cy="88" r="80"/><g><path class="f" d="M121.02,16.05l-48.34,3.62s-36.56-3.21-36.95,19.5c-.39,22.71-12.39,61.76-12.39,61.76l-7.06,44.82,46.6,2.38"/><path class="e" d="M51.87,74.24s-3.19-12.77-11.94-4c-1.75,1.75-3.06,9.86-1.89,15.71,2.13,10.64,9.05,10.64,9.05,10.64"/><path class="e" d="M63.4,138.82l-1.15,19.89,46.84,6.92s9.29,.41,7.88-4.22c-1.41-4.63-2.85-5.92-3.61-9.07"/><path class="e" d="M93.61,34.84l-24.43,1.83c-6.09,.46-11.11,4.94-12.24,10.94l-13.17,69.7c-.49,2.61-.15,5.32,.98,7.73l3.34,7.12,51.29,22.3s10.52,5.08,17.07-7.15c6.55-12.23,7.88-23,7.88-23l11.54-31.81s.29-9.63-1.05-13.26c-.92-2.5-5.88-21.84-8.89-33.69-1.39-5.48-6.2-9.42-11.85-9.7l-20.47-1.01Z"/><circle cx="111.53" cy="85.25" r="4.52"/><circle cx="81.92" cy="82.48" r="4.52"/><path class="c" d="M90.74,71.33c-1.32-1.06-5.99-2.97-7.91-5.81-2.76-4.1-6.33-6.76-16.29,1.91"/><path class="c" d="M107.86,70.05s6.49,2.45,14.87-1.11,6.66-1.57,6.66-1.57"/><path class="b" d="M99.11,90.71s6.35,9.69,7.24,14.4c.89,4.71-.7,4.85-3.36,5.05-1.48,.11-3.82-.21-5.61-.52-1.9-.33-3.43-1.87-3.57-3.8-.05-.71,.12-1.29,.74-1.45"/><path class="g" d="M96.7,115.17s-.39,2.52-7.59-1.57-14.78,2.18-14.78,2.18c0,0,8.25,8.24,14.06,9.62s19.51-3.06,19.51-3.06c0,0-6.02-9.15-11.21-7.16Z"/><line class="e" x1="74.33" y1="115.78" x2="107.91" y2="122.34"/><line class="e" x1="72.05" y1="85.27" x2="66.29" y2="85.71"/><line class="e" x1="123.54" y1="91.32" x2="118.77" y2="89.24"/><path class="d" d="M60.19,41.08c13.72-44.78,33.41-6.24,33.41-6.24l-33.41,6.24Z"/><path class="b" d="M60.19,41.08c-1.68,.86-8.21,13.04-21.21,16"/><path class="d" d="M93.61,34.84c12.22-13.76,19.66-18.42,24.11-18.34,9.78,.19,5.09,23.37,5.09,23.37l-29.2-5.03Z"/><line class="e" x1="74.36" y1="90.1" x2="68.47" y2="93.01"/></g></svg>