<?xml version="1.0" encoding="UTF-8"?><svg id="a" xmlns="http://www.w3.org/2000/svg" width="1920" height="1080" viewBox="0 0 1920 1080"><defs><style>.b{stroke-width:5px;}.b,.c,.d,.e,.f,.g,.h,.i{stroke:#806fa6;}.b,.c,.d,.e,.f,.g,.h,.i,.j{stroke-miterlimit:10;}.b,.f{fill:#fff;}.k{fill:#f7b902;}.l{fill:#d93a2b;}.c,.d,.e,.f,.g,.h{stroke-width:10px;}.c,.i{fill:#cbcbcb;}.d{fill:#603813;}.e{fill:#e5e5e5;}.g{fill:#f1f1f1;}.h{fill:#f2911b;}.i,.j{stroke-width:7px;}.j{fill:none;stroke:#000;}</style></defs><rect y="-11" width="1920" height="1080"/><polygon class="d" points="-51 204.13 1930 682 1919 1148 -51 1160 -51 204.13"/><path class="g" d="M1070.22,967.32l-51.23-79.18s-37.12,1.11-43.59,39.56c-35.59,19.82,17.98-12.78-35.59,19.82,0,45.41,.58,37.26,.58,37.26,0,0,97.12-23.34,129.83-17.47Z"/><g><path class="k" d="M676.66,156.75h54.96v54.96c0,12.14-3.91,21.27-11.72,27.39-7.81,6.13-16.1,9.19-24.86,9.19h-36.75c-10.02,0-18.62-3.59-25.81-10.78-7.19-7.18-10.78-15.79-10.78-25.81V119.99c0-9.85,3.53-18.41,10.61-25.68,7.07-7.27,15.73-10.91,25.98-10.91h36.75c23.01,0,35.21,12.19,36.58,36.58h-18.38c-1.43-12.14-7.5-18.21-18.21-18.21h-18.38c-5.04,0-9.36,1.79-12.97,5.37-3.61,3.58-5.41,7.86-5.41,12.84v91.71c0,5.04,1.8,9.33,5.41,12.88,3.61,3.55,7.93,5.32,12.97,5.32,11.68-.57,17.8-6.64,18.38-18.21v-36.75h-18.38v-18.21Z"/><path class="k" d="M768.2,248.29V119.99c0-10.02,3.59-18.62,10.78-25.81,7.18-7.18,15.79-10.78,25.81-10.78h36.75c10.02,0,18.62,3.61,25.81,10.82,7.18,7.21,10.78,15.8,10.78,25.76V248.29h-36.58v-73.34h-36.75v73.34h-36.58Zm36.58-91.54h36.75v-36.75c0-4.98-1.82-9.26-5.45-12.84-3.64-3.58-7.94-5.37-12.92-5.37s-9.36,1.79-12.97,5.37c-3.61,3.58-5.41,7.86-5.41,12.84v36.75Z"/><path class="k" d="M914.7,248.29V83.41h8.33l78.32,78.15,78.23-78.15h18.38V248.29h-36.75v-100.82l-64.32,64.32-63.81-64.32v100.82h-18.38Z"/><path class="k" d="M1134.54,248.29V83.41h91.54v18.38h-54.96v54.96h36.75v18.21h-36.75v54.96h54.96v18.38h-91.54Z"/><path class="k" d="M1353.09,83.41h36.75c10.02,0,18.62,3.61,25.81,10.82,7.18,7.21,10.78,15.8,10.78,25.76v91.71c0,9.91-3.59,18.48-10.78,25.72-7.19,7.24-15.79,10.86-25.81,10.86h-36.75c-10.02,0-18.62-3.59-25.81-10.78-7.18-7.18-10.78-15.79-10.78-25.81V119.99c0-10.02,3.59-18.62,10.78-25.81,7.18-7.18,15.79-10.78,25.81-10.78Zm0,36.58v91.71c0,4.92,1.79,9.19,5.37,12.8,3.58,3.61,7.91,5.41,13.01,5.41s9.43-1.8,13.01-5.41c3.58-3.61,5.37-7.87,5.37-12.8V119.99c0-4.98-1.82-9.26-5.45-12.84-3.64-3.58-7.94-5.37-12.92-5.37s-9.36,1.79-12.97,5.37c-3.61,3.58-5.41,7.86-5.41,12.84Z"/><path class="k" d="M1536.35,83.41h36.58v102.28c0,17.06-6.14,31.76-18.42,44.1-12.28,12.34-27.01,18.51-44.18,18.51h-47.32V83.41h36.58V229.91h18.38c5.09,0,9.43-1.8,13.01-5.41,3.58-3.61,5.37-7.87,5.37-12.8V83.41Z"/><path class="k" d="M1609.51,248.29V83.41h91.54v18.38h-54.96v54.96h36.75v18.21h-36.75v54.96h54.96v18.38h-91.54Z"/><path class="k" d="M1737.81,248.29V83.41h73.34c10.02,0,18.62,3.61,25.81,10.82,7.18,7.21,10.78,15.8,10.78,25.76v9.96c0,8.19-2.81,16.07-8.42,23.66-5.61,7.59-15,11.38-28.17,11.38h18.21c5.04,0,9.36,1.8,12.97,5.41,3.61,3.61,5.41,7.93,5.41,12.97v64.92h-36.58v-54.96c0-5.04-1.82-9.36-5.45-12.97-3.64-3.61-7.94-5.41-12.92-5.41h-18.38v73.34h-36.58Zm36.58-91.54h18.38c4.98,0,9.29-1.82,12.92-5.45,3.63-3.63,5.45-7.94,5.45-12.92v-18.38c0-4.98-1.82-9.26-5.45-12.84-3.64-3.58-7.94-5.37-12.92-5.37h-18.38v54.96Z"/></g><g><path class="l" d="M686.73,169.56h54.96v54.96c0,12.14-3.91,21.27-11.72,27.39-7.81,6.13-16.1,9.19-24.86,9.19h-36.75c-10.02,0-18.62-3.59-25.81-10.78-7.19-7.18-10.78-15.79-10.78-25.81v-91.71c0-9.85,3.53-18.41,10.61-25.68,7.07-7.27,15.73-10.91,25.98-10.91h36.75c23.01,0,35.21,12.19,36.58,36.58h-18.38c-1.43-12.14-7.5-18.21-18.21-18.21h-18.38c-5.04,0-9.36,1.79-12.97,5.37-3.61,3.58-5.41,7.86-5.41,12.84v91.71c0,5.04,1.8,9.33,5.41,12.88,3.61,3.55,7.93,5.32,12.97,5.32,11.68-.57,17.8-6.64,18.38-18.21v-36.75h-18.38v-18.21Z"/><path class="l" d="M778.27,261.11V132.81c0-10.02,3.59-18.62,10.78-25.81,7.18-7.18,15.79-10.78,25.81-10.78h36.75c10.02,0,18.62,3.61,25.81,10.82,7.18,7.21,10.78,15.8,10.78,25.76v128.3h-36.58v-73.34h-36.75v73.34h-36.58Zm36.58-91.54h36.75v-36.75c0-4.98-1.82-9.26-5.45-12.84-3.64-3.58-7.94-5.37-12.92-5.37s-9.36,1.79-12.97,5.37c-3.61,3.58-5.41,7.86-5.41,12.84v36.75Z"/><path class="l" d="M924.77,261.11V96.23h8.33l78.32,78.15,78.23-78.15h18.38v164.88h-36.75v-100.82l-64.32,64.32-63.81-64.32v100.82h-18.38Z"/><path class="l" d="M1144.61,261.11V96.23h91.54v18.38h-54.96v54.96h36.75v18.21h-36.75v54.96h54.96v18.38h-91.54Z"/><path class="l" d="M1363.16,96.23h36.75c10.02,0,18.62,3.61,25.81,10.82,7.18,7.21,10.78,15.8,10.78,25.76v91.71c0,9.91-3.59,18.48-10.78,25.72-7.19,7.24-15.79,10.86-25.81,10.86h-36.75c-10.02,0-18.62-3.59-25.81-10.78-7.18-7.18-10.78-15.79-10.78-25.81v-91.71c0-10.02,3.59-18.62,10.78-25.81,7.18-7.18,15.79-10.78,25.81-10.78Zm0,36.58v91.71c0,4.92,1.79,9.19,5.37,12.8,3.58,3.61,7.91,5.41,13.01,5.41s9.43-1.8,13.01-5.41c3.58-3.61,5.37-7.87,5.37-12.8v-91.71c0-4.98-1.82-9.26-5.45-12.84-3.64-3.58-7.94-5.37-12.92-5.37s-9.36,1.79-12.97,5.37c-3.61,3.58-5.41,7.86-5.41,12.84Z"/><path class="l" d="M1546.42,96.23h36.58v102.28c0,17.06-6.14,31.76-18.42,44.1-12.28,12.34-27.01,18.51-44.18,18.51h-47.32V96.23h36.58V242.73h18.38c5.09,0,9.43-1.8,13.01-5.41,3.58-3.61,5.37-7.87,5.37-12.8V96.23Z"/><path class="l" d="M1619.58,261.11V96.23h91.54v18.38h-54.96v54.96h36.75v18.21h-36.75v54.96h54.96v18.38h-91.54Z"/><path class="l" d="M1747.88,261.11V96.23h73.34c10.02,0,18.62,3.61,25.81,10.82,7.18,7.21,10.78,15.8,10.78,25.76v9.96c0,8.19-2.81,16.07-8.42,23.66-5.61,7.59-15,11.38-28.17,11.38h18.21c5.04,0,9.36,1.8,12.97,5.41,3.61,3.61,5.41,7.93,5.41,12.97v64.92h-36.58v-54.96c0-5.04-1.82-9.36-5.45-12.97-3.64-3.61-7.94-5.41-12.92-5.41h-18.38v73.34h-36.58Zm36.58-91.54h18.38c4.98,0,9.29-1.82,12.92-5.45,3.63-3.63,5.45-7.94,5.45-12.92v-18.38c0-4.98-1.82-9.26-5.45-12.84-3.64-3.58-7.94-5.37-12.92-5.37h-18.38v54.96Z"/></g><path class="c" d="M1775.3,999.47s12.81,15.14-12.81,19.79c-25.62,4.66-191.76,0-191.76,0l-37.63-31.44,32.6-38.42s40.38,40.41,60.36,41.16,149.23,8.91,149.23,8.91Z"/><path class="c" d="M997.85,616.17l64.87,14.29s96.88,3.49,102,0c5.12-3.49,14.44,15.14,14.44,15.14,0,0-39.59,15.14-83.84,11.64-48.9,19.79-43.88,9.23-43.88,9.23l-54.25-49.04c-.56-.5-.08-1.42,.65-1.25Z"/><path class="g" d="M1164.72,630.45l-111.32-101.3s-40.09,26.15-55.56,87.02l64.87,14.29s95.71-2.33,102,0Z"/><path class="c" d="M1069.06,984.79s16.3-18.63-12.81-17.47c-29.11,1.16-115.86,17.47-115.86,17.47v26.3l128.67-26.3Z"/><path class="g" d="M1765.98,994.81s-105.88-83.19-125.98-120.95c-2.26-4.24-8.08-4.84-11.15-1.14-28.23,34.01-63.14,76.68-63.14,76.68,0,0,49.86,48.8,74.41,41.87l125.86,3.55Z"/><path class="g" d="M1545.25,673.89s-373.77,65.21-398.22,166.51c98.97,51.23,157.19,82.67,157.19,82.67l98.97,24.45s186.3-167.67,142.06-273.63Z"/><path class="e" d="M472.89,827.83s24.15,115.75-80.07,109.03c-9.13-.59-17.82-4.26-24.47-10.55-73.69-69.68-37.12-165.7-37.12-165.7l-27.28-11.49s-5.19,180.03,55.06,210.77,102.05,17.21,127.86,8.61,76.23-71.31,76.23-71.31l-12.29-31.97-77.91-37.39"/><path class="c" d="M1164.51,810.71l165.66,94.37s107.96,42.45,73.03,42.45-98.97-24.45-98.97-24.45l-157.19-82.67s17.49-30.27,17.48-29.69"/><path class="i" d="M788,703.85l-89.67-122.63-50.41-24.59s-27.05-55.33-49.18-38.11c-22.13,17.21,15.98-60.24,15.98-60.24l57.78,75,39.34,6.15,82.99,122.49s-6.93,15.81-6.85,41.94"/><path class="h" d="M614.73,458.27l-140.16-82.37c-234.05,24.58-235.31,241.93-231.64,298.34,.55,8.39,3.67,16.39,8.92,22.96l24.82,31c4.83,6.03,10.95,10.89,17.91,14.23,38.86,18.6,175.61,84.07,256.21,122.8-13.52-125.41,48.43-183.76,48.43-183.76l4.44-58.45-19.67-30.74c-3.69-89.75,30.74-134.01,30.74-134.01"/><circle class="f" cx="481.62" cy="620.71" r="132.78"/><g><circle class="b" cx="482.1" cy="620.44" r="131.43"/><circle cx="535.62" cy="566.27" r="10.53"/><path class="j" d="M382.7,681.76s110.73-43.41,91.84-167.26"/><circle cx="469.4" cy="695.95" r="10.53"/></g><path class="g" d="M614,470l-18.4,31.22c-4.34,11.16-7.19,22.84-8.47,34.74l16.71,87.66-22.17,80.25-30.87,161.36s22.13,50.41,47.95,52.87c0,0,90.98,41.8,206.55-95.9-11.07-60.24-27.05-96.8-10.45-160.28-49.79-70.86-82.99-122.49-82.99-122.49l-39.34-6.15-58.51-63.26Z"/><path class="c" d="M581.99,703.85s-30.28,95.13,0,154.69c30.28,59.55,80.68,43.57,80.68,43.57l84.56-22.93s-116.82,80.84-155.4,37.13c-38.58-43.71-44.5-66.49-39.7-129.48,4.8-62.99,29.85-82.98,29.85-82.98"/><path class="c" d="M792,682l-92-109-52.08-16.38s-8.92-39.62-49.92-46.62c-1-30,16-40,16-40l58.51,63.26,39.34,6.15,82.99,122.49s-1.84,7.1-2.84,20.1Z"/></svg>