<?xml version="1.0" encoding="UTF-8"?><svg id="b" xmlns="http://www.w3.org/2000/svg" width="1920" height="1080" viewBox="0 0 1920 1080"><defs><style>.c,.d{stroke-width:5px;}.c,.d,.e,.f,.g,.h,.i,.j,.k,.l,.m,.n,.o{stroke-miterlimit:10;}.c,.d,.e,.f,.g,.h,.i,.j,.k,.l,.n,.o{stroke:#806fa6;}.c,.h,.j{fill:#f2bba7;}.d{fill:#603813;}.p{fill:#f2b544;}.q,.l{fill:#067368;}.e{fill:#d93a2b;}.e,.f,.g{stroke-width:10px;}.f{fill:#333;}.g{fill:#f2911b;}.h,.i,.m,.n{stroke-width:4px;}.i{fill:#f28379;}.j,.k,.l,.o{stroke-width:7px;}.k{fill:#f2a787;}.m{stroke:#000;}.m,.n,.o{fill:none;}</style></defs><rect width="1920" height="1080"/><polygon class="g" points="-76 718 2006 418 1993 613 39 1333 -76 718"/><polyline class="f" points="999.94 931.27 1013.67 1144 737.59 1144 732.64 939.75 999.94 931.27"/><path class="h" d="M524.22,474.34l-6.37-15.96s.8-14.04,9.06-3.97,28.09,63.59,28.09,63.59l-22,28-14.97-17.72"/><path class="h" d="M525.33,500.61c-7.85-9.58-1.89-26.65-1.89-26.65,0,0-13.31-34.59-21.66-41.14-13.02-10.21-8.69,5.25-8.69,5.25l21.17,42.8s-8.5-19.42-20.56-35.84c-14.53-8.1-7.1,8.89-7.1,8.89l16.88,30.22s-1.56-.77-19.28-16.15c-18.18-10.85-4.48,12.08-4.48,12.08l5.5,4.82,14.31,12.54c-.34,13.17,10.59,21.4,10.59,21.4l20.41,24.33"/><polyline class="h" points="499.85 502.36 483.73 490.27 481.72 485.69 485.22 484.89"/><path class="e" d="M575.54,789.68S-152.36,1005.17-182.73,1144c174.44-.53,754.04,0,754.04,0l117.9-313.98-113.67-40.34Z"/><path class="j" d="M713.84,682.11s-75.28,18.3-93.96,31.67c-5.78,4.14-48.56,76.01-48.56,76.01,0,0,92.91,53.84,80.24,145.69s161.48-198.15,161.48-198.15l-72.27-98.89-26.92,43.66"/><g><path class="q" d="M1051.89,313.17c-1.24,18.86-10.67,28.29-28.29,28.29h-28.42c-7.75,0-14.4-2.78-19.96-8.33-5.56-5.56-8.33-12.21-8.33-19.96v-70.92c0-7.61,2.73-14.23,8.2-19.86,5.47-5.62,12.16-8.43,20.09-8.43h28.42c17.8,0,27.23,9.43,28.29,28.29h-14.21c-1.11-9.39-5.8-14.08-14.08-14.08h-14.21c-3.9,0-7.24,1.38-10.03,4.15-2.79,2.77-4.18,6.08-4.18,9.93v70.92c0,3.81,1.38,7.11,4.15,9.89,2.77,2.79,6.12,4.18,10.06,4.18h14.21c8.32,0,13.02-4.69,14.08-14.08h14.21Z"/><path class="q" d="M1108.46,213.96h28.42c7.75,0,14.4,2.79,19.96,8.37s8.33,12.22,8.33,19.92v70.92c0,7.66-2.78,14.29-8.33,19.89-5.56,5.6-12.21,8.4-19.96,8.4h-28.42c-7.75,0-14.4-2.78-19.96-8.33-5.56-5.56-8.33-12.21-8.33-19.96v-70.92c0-7.75,2.78-14.4,8.33-19.96,5.56-5.56,12.21-8.33,19.96-8.33Zm0,28.29v70.92c0,3.81,1.38,7.11,4.15,9.89s6.12,4.18,10.06,4.18,7.29-1.39,10.06-4.18,4.15-6.09,4.15-9.89v-70.92c0-3.85-1.41-7.16-4.22-9.93-2.81-2.77-6.14-4.15-9.99-4.15s-7.24,1.38-10.03,4.15c-2.79,2.77-4.18,6.08-4.18,9.93Z"/><path class="q" d="M1193.46,341.46v-127.5h6.44l60.56,60.43,60.5-60.43h14.21v127.5h-28.42v-77.96l-49.74,49.74-49.34-49.74v77.96h-14.21Z"/><path class="q" d="M1363.46,341.46v-127.5h56.71c7.75,0,14.4,2.79,19.96,8.37s8.33,12.22,8.33,19.92v14.21c0,7.75-2.78,14.4-8.33,19.96-5.56,5.56-12.21,8.33-19.96,8.33h-28.42v56.71h-28.29Zm28.29-70.79h14.21c3.85,0,7.18-1.4,9.99-4.22,2.81-2.81,4.22-6.14,4.22-9.99v-14.21c0-3.85-1.41-7.16-4.22-9.93-2.81-2.77-6.14-4.15-9.99-4.15h-14.21v42.5Z"/><path class="q" d="M1476.75,341.46v-127.5h28.29v113.29h42.5v14.21h-70.79Z"/><path class="q" d="M1575.96,341.46v-127.5h70.79v14.21h-42.5v42.5h28.42v14.08h-28.42v42.5h42.5v14.21h-70.79Z"/><path class="q" d="M1689.25,341.46v-113.29h-28.29v-14.21h85v14.21h-28.29v113.29h-28.42Z"/><path class="q" d="M1760.17,341.46v-127.5h70.79v14.21h-42.5v42.5h28.42v14.08h-28.42v42.5h42.5v14.21h-70.79Z"/></g><g><path class="p" d="M1066.42,327.28c-1.24,18.86-10.67,28.29-28.29,28.29h-28.42c-7.75,0-14.4-2.78-19.96-8.33-5.56-5.56-8.33-12.21-8.33-19.96v-70.92c0-7.61,2.73-14.23,8.2-19.86,5.47-5.62,12.16-8.43,20.09-8.43h28.42c17.8,0,27.23,9.43,28.29,28.29h-14.21c-1.11-9.39-5.8-14.08-14.08-14.08h-14.21c-3.9,0-7.24,1.38-10.03,4.15-2.79,2.77-4.18,6.08-4.18,9.93v70.92c0,3.81,1.38,7.11,4.15,9.89s6.12,4.18,10.06,4.18h14.21c8.32,0,13.02-4.69,14.08-14.08h14.21Z"/><path class="p" d="M1123,228.07h28.42c7.75,0,14.4,2.79,19.96,8.37,5.55,5.58,8.33,12.22,8.33,19.92v70.92c0,7.66-2.78,14.29-8.33,19.89-5.56,5.6-12.21,8.4-19.96,8.4h-28.42c-7.75,0-14.4-2.78-19.96-8.33-5.56-5.56-8.33-12.21-8.33-19.96v-70.92c0-7.75,2.78-14.4,8.33-19.96,5.55-5.56,12.21-8.33,19.96-8.33Zm0,28.29v70.92c0,3.81,1.38,7.11,4.15,9.89,2.77,2.79,6.12,4.18,10.06,4.18s7.29-1.39,10.06-4.18c2.77-2.79,4.15-6.09,4.15-9.89v-70.92c0-3.85-1.41-7.16-4.22-9.93-2.81-2.77-6.14-4.15-9.99-4.15s-7.24,1.38-10.03,4.15c-2.79,2.77-4.18,6.08-4.18,9.93Z"/><path class="p" d="M1208,355.57v-127.5h6.44l60.56,60.43,60.5-60.43h14.21v127.5h-28.42v-77.96l-49.74,49.74-49.34-49.74v77.96h-14.21Z"/><path class="p" d="M1378,355.57v-127.5h56.71c7.75,0,14.4,2.79,19.96,8.37s8.33,12.22,8.33,19.92v14.21c0,7.75-2.78,14.4-8.33,19.96-5.56,5.56-12.21,8.33-19.96,8.33h-28.42v56.71h-28.29Zm28.29-70.79h14.21c3.85,0,7.18-1.4,9.99-4.22,2.81-2.81,4.22-6.14,4.22-9.99v-14.21c0-3.85-1.41-7.16-4.22-9.93-2.81-2.77-6.14-4.15-9.99-4.15h-14.21v42.5Z"/><path class="p" d="M1491.29,355.57v-127.5h28.29v113.29h42.5v14.21h-70.79Z"/><path class="p" d="M1590.5,355.57v-127.5h70.79v14.21h-42.5v42.5h28.42v14.08h-28.42v42.5h42.5v14.21h-70.79Z"/><path class="p" d="M1703.78,355.57v-113.29h-28.29v-14.21h85v14.21h-28.29v113.29h-28.42Z"/><path class="p" d="M1774.71,355.57v-127.5h70.79v14.21h-42.5v42.5h28.42v14.08h-28.42v42.5h42.5v14.21h-70.79Z"/></g><path class="k" d="M575.1,791.73c-.98-.51-.67-1.99,.44-2.05,16.11-.82,74.07-7.32,100.29-57.95,29.27-56.53,88.28-48.48,93.4-47.67,.23,.04,.44,.15,.61,.31l20.69,21.12c.32,.33,.4,.82,.2,1.24l-112.12,232.4c-.21,.43-.68,.68-1.16,.6l-24.84-4.07c-.59-.1-.99-.64-.9-1.23,1.57-10.51,11.48-96.6-76.62-142.7Z"/><path class="l" d="M899.5,434.5l-153.99,240.22s100.18,52.87,89.74,122.47c67.47-68.34,181.59-214.32,178.42-237.54,9.5-55.95,13.72-115.08-53.84-182.64-67.57-24.28-65.77-13.65-105.05-13.65-65.98,0-15.84,21.57-73.37,79.11-11.08,11.08-29.18,11.46-36.95,19-35.19,34.16-30.62,44.34-30.62,44.34,0,0-32.98,6.7-51.33,3.35s-108.09,9.32-108.09,9.32l-17.95,28.5s141.47,48.56,159.42,35.9l17.95,99.24,38.01-4.22"/><path class="c" d="M737.59,400.76s24.96,21.95,29.56,50.68c4.6,28.73,91.32-82.88,91.32-82.88,0,0-46.4-64.65-33.23-64s-82.09,87.9-82.09,87.9"/><line class="l" x1="695.89" y1="582.87" x2="713.84" y2="505.81"/><path class="j" d="M751.6,960.44l-23.23,26.09s-33.02,7.75-36.97,0-6.67-11.32-6.67-11.32c0,0-39.53,9.1-50.08,0,.01-14.38,16.9-39.72,16.9-39.72,0,0,51.88-37.63,41.57-81.16,7.93-19.42,35.38-85.99,42.33-102.85,1.05-2.54,2.83-4.68,5.14-6.17,12.08-7.83,51.03-33.53,50.32-38.9-.85-6.36,.16-.35,.16-.35l108.49,65.05-114.98,183.4-32.97,5.95Z"/><path class="l" d="M1016.5,516.5l-16.56,414.77-98.38,33.26c-16.66,3.84-33.81,5.11-50.86,3.76l-99.1-7.85s48.81-36.56,57.66-63.44c2.73-8.29,0-62.29,0-62.29l22.92-31.47,184.32-286.75Z"/><g><path class="d" d="M822.46,234.05s17.91,87.39,34.78,70.32c4.75-.85,21-17.98,23.24-40.46,1.51-15.1-8.86-35.76-12.43-43.73,2.24-10.1,15.54-7.78-1.81-32.8-17.35-25.02,6.9-27-46.81-65.45-17.72-7.38,1.1-20.11-51.73-14.2-52.83,5.91-64.84,17.42-64.84,17.42,0,0-16.37-2.74-26.15,19.4-9.78,22.15-35.66,5.09-37.26,48.72-1.59,43.63,26.1,60.95,26.1,60.95"/><path class="h" d="M827.67,239.13s1.95-28.46,23.96-13.09c4.4,3.07,10.29,19.87,10.02,32.8-.49,23.52-19.32,34.14-19.32,34.14"/><path class="c" d="M848.88,303.52l-36.5-111.97s-56.69,29.44-62.41,17.15c-19.39,3.03-24.33,16.48-46.02,4.69-20.2,3.18-15.02,4.44-23.78,1.31-7.95,1.42-19.86,62.7-19.86,62.7l27.3,100.56s4.01,35.6,36.81,35.61c25.42,0,84.56-31.17,110.01-46.56,7.62-4.61,18.91-17.41,21.13-26.03l-6.68-37.47Z"/><circle cx="775.99" cy="262.63" r="9.8"/><circle cx="714.68" cy="273.57" r="9.8"/><path class="n" d="M742.61,279.54s-9.86,23.08-9.96,33.47,3.35,10.09,9.08,9.51"/><path class="n" d="M740.77,322.75c3.2-.33,8.08-1.91,11.77-3.24,3.94-1.42,6.6-5.3,6.17-9.46"/><path class="m" d="M755.73,240.33c2.42-2.77,11.66-8.61,14.66-15.41,4.32-9.8,10.93-16.84,35.48-2.13"/><path class="m" d="M723.25,242.32s-12.91,7.69-32.15,3.28c-19.24-4.41-14.82-.81-14.82-.81"/><path class="i" d="M753.57,340.99s5.46-13.86,18.49-9.14c11.4-4.36,23.92-13.03,23.92-13.03,0,0-22.78,38.15-39.85,39.31-17.07,1.16-33.08-8.16-33.08-8.16,0,0,24.04-21.92,30.53-8.99Z"/><path class="n" d="M800.93,313.83s-53.21,56.35-77.9,36.15"/><line class="h" x1="689.21" y1="293.43" x2="698.58" y2="287.18"/><line class="h" x1="798.83" y1="260.37" x2="808.2" y2="254.12"/><line class="h" x1="799.33" y1="270.85" x2="810.91" y2="273.13"/><line class="h" x1="696.13" y1="276.33" x2="685.18" y2="273.7"/></g><path class="o" d="M684.72,975.21s81.32-107.14,56.56-118.9"/><line class="l" x1="704.86" y1="989.93" x2="777.74" y2="889.79"/><g><path class="q" d="M116.52,349.11v-127.5h28.29v113.29h42.5v14.21H116.52Z"/><path class="q" d="M215.73,349.11v-127.5h70.79v14.21h-42.5v42.5h28.42v14.08h-28.42v42.5h42.5v14.21h-70.79Z"/><path class="q" d="M371.65,221.61h28.29v79.09c0,13.19-4.75,24.56-14.24,34.1-9.5,9.54-20.88,14.31-34.17,14.31h-36.59v-127.5h28.29v113.29h14.21c3.94,0,7.29-1.39,10.06-4.18,2.77-2.79,4.15-6.09,4.15-9.89v-99.21Z"/><path class="q" d="M428.23,349.11v-127.5h70.79v14.21h-42.5v42.5h28.42v14.08h-28.42v42.5h42.5v14.21h-70.79Z"/><path class="q" d="M527.44,349.11v-127.5h28.29v113.29h42.5v14.21h-70.79Z"/></g><g><path class="p" d="M130.46,358.62v-127.5h28.29v113.29h42.5v14.21h-70.79Z"/><path class="p" d="M229.67,358.62v-127.5h70.79v14.21h-42.5v42.5h28.42v14.08h-28.42v42.5h42.5v14.21h-70.79Z"/><path class="p" d="M385.59,231.12h28.29v79.09c0,13.19-4.75,24.56-14.24,34.1-9.5,9.54-20.88,14.31-34.17,14.31h-36.59v-127.5h28.29v113.29h14.21c3.94,0,7.29-1.39,10.06-4.18,2.77-2.79,4.15-6.09,4.15-9.89v-99.21Z"/><path class="p" d="M442.17,358.62v-127.5h70.79v14.21h-42.5v42.5h28.42v14.08h-28.42v42.5h42.5v14.21h-70.79Z"/><path class="p" d="M541.38,358.62v-127.5h28.29v113.29h42.5v14.21h-70.79Z"/></g></svg>