<?xml version="1.0" encoding="UTF-8"?><svg id="a" xmlns="http://www.w3.org/2000/svg" width="1920" height="1080" viewBox="0 0 1920 1080"><defs><style>.b,.c,.d,.e,.f,.g,.h,.i,.j,.k,.l,.m,.n,.o,.p,.q,.r,.s,.t,.u,.v,.w,.x,.y{stroke-miterlimit:10;}.b,.c,.h,.i,.k,.m,.n,.q,.s{stroke:#806fa6;}.b,.d,.j{stroke-width:5px;}.b,.f{fill:#fff;}.c,.g,.j,.o,.p,.x{fill:none;}.c,.q,.r,.s,.t{stroke-width:3px;}.d,.z,.w{fill:#0d0005;}.d,.j,.p,.u,.y{stroke:#000;}.e{stroke:#f7b902;}.e,.f{stroke-width:22px;}.e,.m,.u{fill:#e6e6e6;}.f{stroke:#0d0005;}.g,.o,.v,.w,.x{stroke:#067368;}.g,.v,.w{stroke-width:6px;}.h{stroke-width:11px;}.h,.aa,.v{fill:#067368;}.ab{fill:#806fa6;}.ac{fill:#3f2940;}.i{fill:#f28379;}.i,.o,.p{stroke-width:4px;}.k{fill:#f2911b;}.k,.y{stroke-width:8px;}.l{fill:#8c6239;stroke:#ab8ebf;}.l,.m,.n,.x{stroke-width:7px;}.n{fill:#754c24;}.q{fill:#603813;}.r{fill:#327168;}.r,.t{stroke:#7d70a1;}.s{fill:#f2bba7;}.t{fill:#e8bca9;}.u{stroke-width:12px;}</style></defs><polygon class="ac" points="1937 512.41 -40 540 -33.84 -14 1935.97 -14 1937 512.41"/><polygon class="n" points="1937 1106 -14.88 1106 -22 500.2 1937 474 1937 1106"/><path class="h" d="M1457.27,732.8l141.06,291.87c7.58,15.68-1.84,35.32-16.94,35.32H347.61c-15.25,0-24.65-20.01-16.76-35.68l140.96-280.16c3.55-7.05,9.9-11.36,16.76-11.36h968.69"/><polygon class="d" points="1428.8 766.03 1534.54 1001.72 384.24 1001.72 500.3 766.03 1428.8 766.03"/><polyline class="g" points="570 754.79 551.85 787 481 787"/><line class="g" x1="611" y1="788.16" x2="620.51" y2="760.56"/><polyline class="g" points="1462.96 785.97 537.04 786.98 519.76 787"/><line class="g" x1="666.01" y1="788.87" x2="675.52" y2="761.26"/><line class="w" x1="843" y1="785" x2="848.01" y2="757.23"/><line class="g" x1="454" y1="818.69" x2="1485.78" y2="819.04"/><line class="g" x1="421" y1="885.15" x2="1512.04" y2="885.35"/><line class="g" x1="394" y1="921.96" x2="1544.76" y2="921.96"/><polygon class="y" points="473 720 1452.43 702.18 1439.92 738.14 477.31 732.8 473 720"/><polygon class="f" points="237.95 783.66 -38 883 -78.81 495.71 202.08 429.41 237.95 783.66"/><polygon class="e" points="222.96 770.24 -28 862 -64.16 509.23 190.44 449.14 222.96 770.24"/><path class="r" d="M56.97,735.57s-59.28,3.05-54.47,27.93c.44,2.25,2.36,47.86,4,64,.59,5.77-1.62,10.44,4,9,0,0,180.65-63.23,180-68l-4.25-34.3c-.68-4.99-5.14-8.59-10.16-8.18l-119.13,9.55Z"/><path class="q" d="M42.77,633.72s9.43,50.73-3.32,45.26c-2.73,.58-15.17-5.06-21.27-16.62-4.1-7.76-3.04-21.1-2.86-26.14-3.4-4.92-10.02-.79-6.17-17.97,3.85-17.19-9.58-12.97,10.84-45.27,7.89-7.81-4.97-10.54,24.63-18.88s38.54-4.78,38.54-4.78c0,0,8.18-5.04,18.24,4.7,10.06,9.74,20.22-5.04,30.57,18s-.71,38.34-.71,38.34"/><path class="t" d="M62.5,700.78l-.16,30.34s54.01,37.99,63.11,3.13c9.1-34.86-9.41-26.59-9.41-26.59l-53.54-6.88Z"/><path class="s" d="M41.08,637.57s-7.24-14.83-15.69-1.8c-1.69,2.6-1.19,12.89,1.78,19.76,5.38,12.5,17.79,14.09,17.79,14.09"/><path class="s" d="M43.74,676.7l-4.82-67.95s36.79,3.43,37.18-4.4c11.05-2.6,16.62,3.53,25.68-7.51,11.51-2.69,9.02-.89,13.03-4.48,4.57-.97,24.3,29.27,24.3,29.27l7.27,59.83s5.61,19.95-11.97,27.1c-13.62,5.54-52.1,1.71-69.09-1-5.08-.81-13.92-5.21-16.99-9.35l-4.58-21.53Z"/><circle cx="73.9" cy="638.92" r="5.67"/><circle cx="109.13" cy="631.43" r="5.67"/><path class="c" d="M95.47,640.71s10.31,10.22,12.63,15.77,.4,6.14-2.8,7.07"/><path class="c" d="M105.86,663.46c-1.79,.52-4.75,.74-7.01,.83-2.42,.09-4.69-1.4-5.37-3.73"/><path class="p" d="M79.9,622.55c-1.9-.96-8.12-2.07-11.21-5.06-4.45-4.31-9.53-6.64-19.48,6.58"/><path class="p" d="M97.74,616.55s8.59,1.31,17.94-5.24c9.35-6.56,7.76-3.66,7.76-3.66"/><path class="i" d="M102.97,676.02s-5.94-6.24-11.9-.87c-7.06,.14-15.65-1.77-15.65-1.77,0,0,20.51,15.48,29.91,12.39,9.4-3.1,15.95-11.58,15.95-11.58,0,0-17.66-6.51-18.32,1.83Z"/><path class="c" d="M71.68,671.78s40.78,18.61,49.62,2.41"/><line class="s" x1="127.11" y1="636.52" x2="120.72" y2="635.21"/><line class="s" x1="61.16" y1="642.68" x2="54.78" y2="641.37"/><line class="s" x1="63.18" y1="648.4" x2="57.47" y2="652.15"/><line class="s" x1="119.67" y1="628.87" x2="124.97" y2="625.07"/><path class="m" d="M1848.2,611.5s91.22,17.77,88.75,74.23c-2.49,57.1-88.75,75.27-88.75,75.27"/><path class="l" d="M1844.5,639.5s62.07,5.51,64.1,40.86c1.06,18.52-3.83,32.87-60.4,59.64"/><path class="k" d="M1592,553v230s129.5,93.43,255,2.47c-.5-45.97,0-232.47,0-232.47h-255Z"/><path class="m" d="M1847,553c0,19.33-57.08,42.5-127.5,42.5s-127.5-23.17-127.5-42.5,57.08-35,127.5-35,127.5,15.67,127.5,35Z"/><g><circle class="b" cx="1719.64" cy="695.41" r="78.36"/><circle cx="1676.34" cy="681.76" r="6.28"/><path class="j" d="M1666.01,712.92s55.73,43.85,113.72-3.23"/><circle cx="1763.15" cy="681.61" r="6.28"/></g><path class="ab" d="M1449.62,147.02c7.38,0,13.39,6.01,13.39,13.39V710.74c0,7.38-6.01,13.39-13.39,13.39H490.39c-7.38,0-13.39-6.01-13.39-13.39V160.41c0-7.38,6.01-13.39,13.39-13.39h959.23m0-20H490.39c-18.44,0-33.39,14.95-33.39,33.39V710.74c0,18.44,14.95,33.39,33.39,33.39h959.23c18.44,0,33.39-14.95,33.39-33.39V160.41c0-18.44-14.95-33.39-33.39-33.39h0Z"/><polygon class="aa" points="394.88 961.15 1531.59 961.15 1582.6 1015.01 353.56 1022.17 394.88 961.15"/><polygon class="p" points="780.64 969.16 1155.43 969.16 1185.36 1046.2 742.62 1046.2 780.64 969.16"/><line class="w" x1="725.49" y1="788.29" x2="733.76" y2="760.17"/><line class="w" x1="781.9" y1="784.85" x2="790.17" y2="756.73"/><line class="w" x1="1025" y1="786" x2="1022.81" y2="760.39"/><line class="w" x1="897.83" y1="786.66" x2="899.93" y2="758.8"/><line class="w" x1="961" y1="786" x2="960.93" y2="756.8"/><line class="w" x1="1089.51" y1="785.15" x2="1087" y2="757"/><line class="w" x1="1156.51" y1="787.15" x2="1151" y2="759"/><line class="w" x1="1220.31" y1="785.34" x2="1214.79" y2="757.19"/><line class="w" x1="1292.31" y1="788.34" x2="1281" y2="761"/><line class="w" x1="1367.89" y1="785.45" x2="1356.59" y2="758.11"/><path class="z" d="M1436.64,157c7.38,0,13.39,6.01,13.39,13.39V705.69c0,7.38-6.01,13.39-13.39,13.39H502.39c-7.38,0-13.39-6.01-13.39-13.39V170.39c0-7.38,6.01-13.39,13.39-13.39h934.25m0-20H502.39c-18.44,0-33.39,14.95-33.39,33.39V705.69c0,18.44,14.95,33.39,33.39,33.39h934.25c18.44,0,33.39-14.95,33.39-33.39V170.39c0-18.44-14.95-33.39-33.39-33.39h0Z"/><polygon points="469 710 467 733 476 745 1450.05 748.08 1466.96 739.19 1470 706 1441 708 488 701 469 710"/><line class="g" x1="528.52" y1="818.13" x2="545.81" y2="786.42"/><line class="g" x1="591.43" y1="818.83" x2="608.72" y2="787.12"/><line class="g" x1="644.08" y1="817.62" x2="661.36" y2="785.9"/><line class="g" x1="708" y1="818" x2="721.66" y2="786.85"/><line class="g" x1="765.68" y1="818.6" x2="774.37" y2="787.07"/><line class="g" x1="824.44" y1="817.98" x2="831.74" y2="786.89"/><line class="g" x1="888" y1="821" x2="890.39" y2="786"/><line class="g" x1="952" y1="821" x2="952.39" y2="786"/><line class="g" x1="1010" y1="821" x2="1010.39" y2="786"/><line class="g" x1="1078.22" y1="817.53" x2="1074.61" y2="783.53"/><line class="g" x1="1140.54" y1="820.02" x2="1136.94" y2="786.02"/><line class="g" x1="1210.59" y1="820.41" x2="1201.05" y2="784.25"/><line class="g" x1="1280.77" y1="820.93" x2="1271.22" y2="784.78"/><line class="g" x1="1356" y1="821" x2="1341.13" y2="785.25"/><polyline class="g" points="1396 819 1411 849 1425 850.33 448 850.36"/><line class="g" x1="1441" y1="884" x2="1423" y2="848"/><line class="g" x1="1384.42" y1="885.15" x2="1404" y2="922"/><line class="g" x1="543.21" y1="819.41" x2="529.55" y2="849.5"/><line class="g" x1="544.84" y1="849.68" x2="528.68" y2="884.18"/><line class="x" x1="512.05" y1="886.49" x2="495.5" y2="921.5"/><rect class="u" x="488" y="158" width="321.33" height="181"/><rect class="u" x="809.33" y="158" width="321.33" height="181"/><rect class="u" x="1130.67" y="158" width="321.33" height="181"/><rect class="u" x="488" y="339" width="321.33" height="181"/><rect class="u" x="809.33" y="339" width="321.33" height="181"/><rect class="u" x="1130.67" y="339" width="321.33" height="181"/><rect class="u" x="488" y="520" width="321.33" height="181"/><rect class="u" x="809.33" y="520" width="321.33" height="181"/><rect class="u" x="1130.67" y="520" width="321.33" height="181"/><line class="g" x1="609.2" y1="820.68" x2="595.53" y2="850.77"/><line class="g" x1="674.36" y1="819.7" x2="660.7" y2="849.79"/><line class="g" x1="730.41" y1="819.87" x2="721.2" y2="850.41"/><line class="g" x1="785.15" y1="821.42" x2="778.7" y2="850.71"/><line class="g" x1="845.04" y1="819.43" x2="838.6" y2="848.71"/><line class="g" x1="907.41" y1="822.46" x2="905.71" y2="851.99"/><line class="g" x1="970.35" y1="820.97" x2="969.6" y2="851.94"/><line class="g" x1="1030.66" y1="821.2" x2="1029.9" y2="852.18"/><line class="g" x1="1087.13" y1="820.81" x2="1092.17" y2="851.12"/><line class="g" x1="1150.29" y1="817.67" x2="1156.36" y2="850.61"/><line class="g" x1="1217.17" y1="816.93" x2="1223.24" y2="849.88"/><line class="g" x1="1284.05" y1="819.26" x2="1295" y2="850"/><line class="g" x1="1340.01" y1="817.54" x2="1350.96" y2="848.27"/><line class="g" x1="611" y1="850" x2="595.28" y2="883.11"/><line class="g" x1="679.19" y1="851.77" x2="666.33" y2="885.97"/><line class="g" x1="746.41" y1="850.95" x2="735.54" y2="885.15"/><line class="g" x1="813.74" y1="849.99" x2="802.87" y2="884.19"/><line class="g" x1="876.87" y1="851.75" x2="871.91" y2="885.98"/><line class="g" x1="941" y1="850.89" x2="940.62" y2="885"/><line class="g" x1="1010" y1="850.74" x2="1009.62" y2="884.85"/><line class="g" x1="1070.98" y1="851.28" x2="1076.6" y2="885.25"/><line class="g" x1="1141.65" y1="850.14" x2="1148.54" y2="885.27"/><line class="g" x1="1209.61" y1="851.26" x2="1216.5" y2="886.39"/><line class="g" x1="1276.38" y1="848.26" x2="1288.9" y2="881.91"/><line class="g" x1="1350.4" y1="850.5" x2="1363" y2="884"/><line class="g" x1="588" y1="884" x2="569.83" y2="920.86"/><line class="g" x1="656.77" y1="886.87" x2="638" y2="921"/><line class="g" x1="732.18" y1="887.46" x2="715" y2="922"/><line class="g" x1="808.15" y1="885.07" x2="796.93" y2="921.99"/><line class="g" x1="881.96" y1="883.23" x2="876.03" y2="919.88"/><line class="g" x1="957" y1="884.31" x2="957.35" y2="921"/><line class="g" x1="1028.74" y1="887.07" x2="1033.18" y2="921.41"/><line class="g" x1="1106.17" y1="886.53" x2="1114.9" y2="921.13"/><line class="g" x1="1181.12" y1="885.64" x2="1189.85" y2="920.24"/><line class="g" x1="1252.32" y1="887.29" x2="1266.01" y2="923.28"/><line class="g" x1="1317.92" y1="885.68" x2="1331.6" y2="921.67"/><line class="x" x1="484.5" y1="922.5" x2="464.89" y2="964.17"/><line class="x" x1="556.51" y1="923.68" x2="536.89" y2="965.36"/><line class="x" x1="636.63" y1="923.52" x2="619.57" y2="969.7"/><line class="x" x1="743.24" y1="922.66" x2="726.18" y2="968.84"/><line class="g" x1="1179.58" y1="921.06" x2="1191.94" y2="968.04"/><line class="g" x1="1270.09" y1="921.26" x2="1282.45" y2="968.25"/><polyline class="v" points="1345 940 1402.9 940.16 1396.9 926.16 1341.9 925.16 1347.9 942.16"/><line class="g" x1="1341.74" y1="925.35" x2="1358.13" y2="972.64"/><polyline class="v" points="1450 936 1507.9 936.16 1502 922 1446 922 1452.9 938.16"/><line class="g" x1="1396.94" y1="922.26" x2="1413.33" y2="969.55"/><line class="g" x1="1447.46" y1="922.38" x2="1463.85" y2="969.67"/><line class="o" x1="1395.9" y1="941.16" x2="1512" y2="939.16"/><polyline points="1406 937.62 1399.54 922 1443 922 1450 938"/><polygon class="r" points="123.55 795.52 155.39 719.34 195.5 721.5 190.5 768.5 123.55 795.52"/><line class="r" x1="60.5" y1="792" x2="60.32" y2="816.43"/><path class="s" d="M167.61,666.95l5.89-28.45s4.53-8.25,8-5,1,13,1,13l-4.79,24.55c-.05,.2,.23,.3,.32,.11l12.06-30.64c.27-.69,.76-1.27,1.41-1.64,1.84-1.05,5.6-2.86,6-.39,.53,6.29,0,12,0,12l-8.69,22.08,11.69,5.92s2.12,6.64,0,13c-2,6-6,11-6,11l-3.27,16.84-28.73,.16,3-15c.29-1.95,.27-4.49-1-6l-9.09-13.91c-1.92-2.29-2.29-5.5-.94-8.17l3.94-7.77c1.22-2.41,4.16-3.39,6.59-2.19l12.35,6.12s7.22,1.87,4.18,6.4-17.67-2.68-17.67-2.68"/><path class="s" d="M190.47,669.58h0c-1.87,.58-2.51,2.46-3.63,4.08-3.34,4.84-7.34,13.84-2.34,15.84,2,1,10.77-16.7,10.77-16.7l-4.8-3.22Z"/><path class="s" d="M198.5,673.5c.98,.56,2.72,5.12,2,6-2.14,2.6-7.55,10-9,10-2,0-1-4,0-8s4-8,4-8h3Z"/></svg>