<?xml version="1.0" encoding="UTF-8"?><svg id="a" xmlns="http://www.w3.org/2000/svg" width="340" height="160" viewBox="0 0 340 160"><defs><style>.b{opacity:.2;}.b,.c{fill:none;stroke:#fff;}.b,.c,.d,.e{stroke-miterlimit:10;}.b,.d{stroke-width:17px;}.c{stroke-width:4px;}.d,.e{stroke:#c74836;}.e{fill:#fff;stroke-width:3px;}</style></defs><rect class="b" x="20.22" y="19.45" width="308.67" height="130.97" rx="40.93" ry="40.93"/><rect class="d" x="11.11" y="9.58" width="308.67" height="130.97" rx="40.93" ry="40.93"/><rect class="c" x="11.11" y="9.58" width="308.67" height="130.97" rx="40.93" ry="40.93"/><g><path class="e" d="M57.07,83.23l8.11-.51c.18,1.32,.53,2.32,1.07,3.01,.88,1.12,2.13,1.67,3.76,1.67,1.22,0,2.15-.29,2.81-.86,.66-.57,.99-1.23,.99-1.99s-.31-1.35-.94-1.92-2.08-1.1-4.37-1.6c-3.74-.84-6.41-1.96-8-3.35-1.61-1.39-2.41-3.17-2.41-5.33,0-1.42,.41-2.76,1.23-4.02,.82-1.26,2.06-2.25,3.71-2.97,1.65-.72,3.91-1.08,6.78-1.08,3.53,0,6.21,.66,8.06,1.97,1.85,1.31,2.95,3.4,3.3,6.26l-8.04,.47c-.21-1.24-.66-2.15-1.35-2.71-.68-.57-1.63-.85-2.83-.85-.99,0-1.74,.21-2.24,.63-.5,.42-.75,.93-.75,1.53,0,.44,.21,.83,.62,1.19,.4,.36,1.35,.7,2.86,1.02,3.73,.8,6.4,1.62,8.01,2.44,1.61,.82,2.79,1.84,3.52,3.06,.73,1.22,1.1,2.58,1.1,4.08,0,1.77-.49,3.4-1.47,4.89s-2.35,2.62-4.1,3.4c-1.76,.77-3.97,1.16-6.64,1.16-4.69,0-7.94-.9-9.75-2.71s-2.83-4.1-3.07-6.89Z"/><path class="e" d="M86.35,64.77h14.17c3.09,0,5.4,.73,6.94,2.2,1.54,1.47,2.31,3.56,2.31,6.27s-.84,4.96-2.51,6.53-4.23,2.35-7.67,2.35h-4.67v10.24h-8.56v-27.59Zm8.56,11.76h2.09c1.64,0,2.8-.29,3.46-.86,.66-.57,1-1.3,1-2.19s-.29-1.6-.87-2.2-1.66-.9-3.25-.9h-2.43v6.15Z"/><path class="e" d="M114.56,64.77h8.54v27.59h-8.54v-27.59Z"/><path class="e" d="M129.22,64.77h8.53v20.8h13.3v6.79h-21.83v-27.59Z"/><path class="e" d="M168.12,64.77h8.54v27.59h-8.54v-27.59Z"/><path class="e" d="M196.65,82.37v-5.74h13.17v11.76c-2.52,1.72-4.75,2.89-6.69,3.51-1.94,.62-4.24,.93-6.9,.93-3.28,0-5.94-.56-8.01-1.68-2.06-1.12-3.66-2.78-4.8-4.99-1.14-2.21-1.7-4.74-1.7-7.6,0-3.01,.62-5.63,1.86-7.86,1.24-2.23,3.06-3.92,5.46-5.07,1.87-.89,4.38-1.34,7.55-1.34s5.33,.28,6.84,.83c1.51,.55,2.77,1.41,3.76,2.57s1.75,2.63,2.25,4.41l-8.22,1.47c-.34-1.04-.91-1.84-1.72-2.39-.81-.55-1.84-.83-3.1-.83-1.87,0-3.36,.65-4.47,1.95-1.11,1.3-1.67,3.35-1.67,6.16,0,2.99,.56,5.12,1.68,6.4,1.12,1.28,2.69,1.92,4.7,1.92,.95,0,1.86-.14,2.73-.41,.87-.28,1.86-.75,2.97-1.41v-2.6h-5.7Z"/><path class="e" d="M214.87,64.77h22.85v5.89h-14.3v4.38h13.27v5.63h-13.27v5.44h14.72v6.25h-23.26v-27.59Z"/><path class="e" d="M242.78,64.77h7.96l10.39,15.26v-15.26h8.04v27.59h-8.04l-10.33-15.15v15.15h-8.02v-27.59Z"/></g></svg>