<?xml version="1.0" encoding="UTF-8"?><svg id="a" xmlns="http://www.w3.org/2000/svg" viewBox="0 0 430 240"><defs><style>.b,.c{fill:#fff;stroke-width:5px;}.b,.c,.d,.e,.f{stroke-miterlimit:10;}.b,.f{stroke:#f23535;}.c,.d,.e{stroke:#fff;}.d,.e{fill:none;}.d,.g{opacity:.2;}.d,.f{stroke-width:17px;}.e{stroke-width:4px;}</style></defs><rect class="d" x="22.22" y="25.31" width="397.28" height="204.81" rx="40.93" ry="40.93"/><rect class="f" x="10.5" y="9.88" width="397.28" height="204.81" rx="40.93" ry="40.93"/><rect class="e" x="9.7" y="10.6" width="397.28" height="204.81" rx="40.93" ry="40.93"/><g><path class="b" d="M60.28,128.47l17.85-1.12c.39,2.9,1.17,5.11,2.36,6.63,1.93,2.46,4.69,3.69,8.28,3.69,2.68,0,4.74-.63,6.19-1.88,1.45-1.26,2.17-2.71,2.17-4.37s-.69-2.98-2.07-4.22c-1.38-1.24-4.58-2.42-9.61-3.52-8.23-1.85-14.09-4.31-17.6-7.37-3.53-3.06-5.3-6.97-5.3-11.72,0-3.12,.9-6.07,2.71-8.84,1.81-2.77,4.53-4.96,8.16-6.54,3.63-1.59,8.61-2.38,14.93-2.38,7.76,0,13.67,1.44,17.74,4.33,4.07,2.89,6.49,7.47,7.27,13.77l-17.68,1.04c-.47-2.73-1.46-4.72-2.96-5.96-1.5-1.24-3.58-1.86-6.23-1.86-2.18,0-3.82,.46-4.93,1.39-1.1,.92-1.66,2.05-1.66,3.38,0,.97,.46,1.84,1.37,2.61,.88,.8,2.98,1.55,6.29,2.24,8.2,1.77,14.07,3.55,17.62,5.36,3.55,1.81,6.13,4.05,7.74,6.73s2.42,5.67,2.42,8.99c0,3.89-1.08,7.48-3.23,10.77-2.15,3.29-5.16,5.78-9.03,7.47-3.87,1.7-8.74,2.55-14.62,2.55-10.33,0-17.47-1.99-21.45-5.96-3.97-3.98-6.23-9.03-6.75-15.16Z"/><path class="b" d="M120.53,87.85h57.02v14.99h-19.13v45.72h-18.76v-45.72h-19.13v-14.99Z"/><path class="b" d="M217.6,138.53h-21.3l-2.96,10.02h-19.15l22.82-60.71h20.46l22.81,60.71h-19.64l-3.04-10.02Zm-3.89-13.13l-6.7-21.82-6.63,21.82h13.33Z"/><path class="b" d="M246.5,148.56v-60.71h31.26c5.8,0,10.23,.5,13.29,1.49s5.54,2.84,7.41,5.53c1.88,2.69,2.82,5.97,2.82,9.83,0,3.37-.72,6.27-2.15,8.72-1.44,2.44-3.41,4.42-5.92,5.94-1.6,.97-3.8,1.77-6.59,2.4,2.23,.75,3.86,1.49,4.88,2.24,.69,.5,1.69,1.56,3,3.19s2.19,2.89,2.63,3.77l9.08,17.59h-21.2l-10.03-18.55c-1.27-2.4-2.4-3.96-3.4-4.68-1.35-.94-2.89-1.41-4.6-1.41h-1.66v24.64h-18.84Zm18.84-36.11h7.91c.86,0,2.51-.28,4.97-.83,1.24-.25,2.26-.88,3.04-1.91,.79-1.02,1.18-2.19,1.18-3.52,0-1.96-.62-3.46-1.86-4.51-1.24-1.05-3.58-1.57-7-1.57h-8.24v12.34Z"/><path class="b" d="M307.2,87.85h57.02v14.99h-19.13v45.72h-18.76v-45.72h-19.13v-14.99Z"/></g><g class="g"><path class="c" d="M69.16,136.03l17.85-1.12c.39,2.9,1.17,5.11,2.36,6.63,1.93,2.46,4.69,3.69,8.28,3.69,2.68,0,4.74-.63,6.19-1.88,1.45-1.26,2.17-2.71,2.17-4.37s-.69-2.98-2.07-4.22c-1.38-1.24-4.58-2.42-9.61-3.52-8.23-1.85-14.09-4.31-17.6-7.37-3.53-3.06-5.3-6.97-5.3-11.72,0-3.12,.9-6.07,2.71-8.84,1.81-2.77,4.53-4.96,8.16-6.54,3.63-1.59,8.61-2.38,14.93-2.38,7.76,0,13.67,1.44,17.74,4.33,4.07,2.89,6.49,7.47,7.27,13.77l-17.68,1.04c-.47-2.73-1.46-4.72-2.96-5.96-1.5-1.24-3.58-1.86-6.23-1.86-2.18,0-3.82,.46-4.93,1.39-1.1,.92-1.66,2.05-1.66,3.38,0,.97,.46,1.84,1.37,2.61,.88,.8,2.98,1.55,6.29,2.24,8.2,1.77,14.07,3.55,17.62,5.36,3.55,1.81,6.13,4.05,7.74,6.73s2.42,5.67,2.42,8.99c0,3.89-1.08,7.48-3.23,10.77-2.15,3.29-5.16,5.78-9.03,7.47-3.87,1.7-8.74,2.55-14.62,2.55-10.33,0-17.47-1.99-21.45-5.96-3.97-3.98-6.23-9.03-6.75-15.16Z"/><path class="c" d="M129.41,95.41h57.02v14.99h-19.13v45.72h-18.76v-45.72h-19.13v-14.99Z"/><path class="c" d="M226.49,146.09h-21.3l-2.96,10.02h-19.15l22.82-60.71h20.46l22.81,60.71h-19.64l-3.04-10.02Zm-3.89-13.13l-6.7-21.82-6.63,21.82h13.33Z"/><path class="c" d="M255.38,156.12v-60.71h31.26c5.8,0,10.23,.5,13.29,1.49s5.54,2.84,7.41,5.53c1.88,2.69,2.82,5.97,2.82,9.83,0,3.37-.72,6.27-2.15,8.72-1.44,2.44-3.41,4.42-5.92,5.94-1.6,.97-3.8,1.77-6.59,2.4,2.23,.75,3.86,1.49,4.88,2.24,.69,.5,1.69,1.56,3,3.19s2.19,2.89,2.63,3.77l9.08,17.59h-21.2l-10.03-18.55c-1.27-2.4-2.4-3.96-3.4-4.68-1.35-.94-2.89-1.41-4.6-1.41h-1.66v24.64h-18.84Zm18.84-36.11h7.91c.86,0,2.51-.28,4.97-.83,1.24-.25,2.26-.88,3.04-1.91,.79-1.02,1.18-2.19,1.18-3.52,0-1.96-.62-3.46-1.86-4.51-1.24-1.05-3.58-1.57-7-1.57h-8.24v12.34Z"/><path class="c" d="M316.09,95.41h57.02v14.99h-19.13v45.72h-18.76v-45.72h-19.13v-14.99Z"/></g></svg>